<?xml version="1.0" encoding="UTF-8"?>
<!DOCTYPE svg PUBLIC "-//W3C//DTD SVG 1.1//EN" "http://www.w3.org/Graphics/SVG/1.1/DTD/svg11.dtd">
<svg xmlns="http://www.w3.org/2000/svg" version="1.1" width="1898px" height="869px" style="shape-rendering:geometricPrecision; text-rendering:geometricPrecision; image-rendering:optimizeQuality; fill-rule:evenodd; clip-rule:evenodd" xmlns:xlink="http://www.w3.org/1999/xlink">
<g><path style="opacity:1" fill="#040816" d="M -0.5,-0.5 C 2.16667,-0.5 4.83333,-0.5 7.5,-0.5C 4.86073,1.30904 2.69406,3.64238 1,6.5C 0.333333,291.167 0.333333,575.833 1,860.5C 1.45056,863.778 2.95056,866.444 5.5,868.5C 3.5,868.5 1.5,868.5 -0.5,868.5C -0.5,578.833 -0.5,289.167 -0.5,-0.5 Z"/></g>
<g><path style="opacity:1" fill="#fefefe" d="M 7.5,-0.5 C 637.5,-0.5 1267.5,-0.5 1897.5,-0.5C 1897.5,289.167 1897.5,578.833 1897.5,868.5C 1266.83,868.5 636.167,868.5 5.5,868.5C 2.95056,866.444 1.45056,863.778 1,860.5C 0.333333,575.833 0.333333,291.167 1,6.5C 2.69406,3.64238 4.86073,1.30904 7.5,-0.5 Z"/></g>
<g><path style="opacity:1" fill="#d1dbe3" d="M 1889.5,17.5 C 1891.14,17.2865 1892.64,17.6198 1894,18.5C 1894.67,110.5 1894.67,202.5 1894,294.5C 1892.33,295.833 1890.67,295.833 1889,294.5C 1888.17,202.097 1888.34,109.763 1889.5,17.5 Z"/></g>
<g><path style="opacity:1" fill="#212121" d="M 1034.5,81.5 C 975.18,80.3607 915.847,80.1941 856.5,81C 852.067,81.4181 847.734,82.2514 843.5,83.5C 845.659,81.6598 848.325,80.4932 851.5,80C 910.833,79.3333 970.167,79.3333 1029.5,80C 1031.38,80.1981 1033.05,80.6981 1034.5,81.5 Z"/></g>
<g><path style="opacity:1" fill="#010101" d="M 1034.5,81.5 C 1052.57,87.0659 1064.57,98.8993 1070.5,117C 1071.66,177.482 1071.82,237.982 1071,298.5C 1066.15,318.507 1053.99,331.507 1034.5,337.5C 973.514,338.473 912.514,338.807 851.5,338.5C 851.167,338.5 850.833,338.5 850.5,338.5C 848.485,337.076 846.152,336.41 843.5,336.5C 831.66,331.497 822.826,323.164 817,311.5C 815.82,307.783 814.487,304.116 813,300.5C 811.856,269.699 811.356,238.866 811.5,208C 811.353,177.462 811.853,146.962 813,116.5C 817.853,100.484 828.02,89.4842 843.5,83.5C 847.734,82.2514 852.067,81.4181 856.5,81C 915.847,80.1941 975.18,80.3607 1034.5,81.5 Z"/></g>
<g><path style="opacity:1" fill="#fbfbfb" d="M 960.5,132.5 C 982.185,137.864 997.852,150.531 1007.5,170.5C 1007.75,172.967 1008.75,174.967 1010.5,176.5C 1012.95,182.252 1013.78,188.252 1013,194.5C 1010.48,198.503 1006.98,201.17 1002.5,202.5C 986.464,203.151 970.798,202.484 955.5,200.5C 960.106,193.726 965.272,187.392 971,181.5C 972.81,175.519 971.31,170.852 966.5,167.5C 962.523,164.563 958.857,164.896 955.5,168.5C 946.45,178.923 938.116,189.923 930.5,201.5C 912.146,203.081 893.813,202.748 875.5,200.5C 872.368,198.797 870.701,196.13 870.5,192.5C 870.323,188.766 870.656,185.099 871.5,181.5C 876.808,162.173 888.475,147.84 906.5,138.5C 908.967,138.245 910.967,137.245 912.5,135.5C 914.214,134.262 916.214,133.595 918.5,133.5C 932.398,129.879 946.398,129.546 960.5,132.5 Z"/></g>
<g><path style="opacity:1" fill="#b6b6b6" d="M 960.5,132.5 C 946.398,129.546 932.398,129.879 918.5,133.5C 919.681,131.933 921.347,131.099 923.5,131C 933.121,129.509 942.788,129.176 952.5,130C 955.457,130.279 958.123,131.113 960.5,132.5 Z"/></g>
<g><path style="opacity:1" fill="#848484" d="M 912.5,135.5 C 910.967,137.245 908.967,138.245 906.5,138.5C 908.033,136.755 910.033,135.755 912.5,135.5 Z"/></g>
<g><path style="opacity:1" fill="#5e5e5e" d="M 966.5,167.5 C 962.766,167.323 959.099,167.656 955.5,168.5C 958.857,164.896 962.523,164.563 966.5,167.5 Z"/></g>
<g><path style="opacity:1" fill="#7d7d7d" d="M 1007.5,170.5 C 1009.25,172.033 1010.25,174.033 1010.5,176.5C 1008.75,174.967 1007.75,172.967 1007.5,170.5 Z"/></g>
<g><path style="opacity:1" fill="#727272" d="M 871.5,181.5 C 870.656,185.099 870.323,188.766 870.5,192.5C 869.359,189.36 869.192,186.027 870,182.5C 870.383,181.944 870.883,181.611 871.5,181.5 Z"/></g>
<g><path style="opacity:1" fill="#777777" d="M 875.5,200.5 C 893.813,202.748 912.146,203.081 930.5,201.5C 922.361,202.831 913.861,203.498 905,203.5C 896.5,203.333 888,203.167 879.5,203C 877.68,202.8 876.347,201.966 875.5,200.5 Z"/></g>
<g><path style="opacity:1" fill="#606060" d="M 955.5,200.5 C 970.798,202.484 986.464,203.151 1002.5,202.5C 986.675,203.496 970.675,203.83 954.5,203.5C 954.263,202.209 954.596,201.209 955.5,200.5 Z"/></g>
<g><path style="opacity:1" fill="#949494" d="M 985.5,232.5 C 990.985,231.348 996.651,231.182 1002.5,232C 1003.42,232.278 1004.08,232.778 1004.5,233.5C 998.203,232.68 991.869,232.347 985.5,232.5 Z"/></g>
<g><path style="opacity:1" fill="#f3f3f3" d="M 985.5,232.5 C 991.869,232.347 998.203,232.68 1004.5,233.5C 1013.08,236.413 1017.41,242.413 1017.5,251.5C 1013.5,251.5 1009.5,251.5 1005.5,251.5C 1005.15,246.642 1002.48,243.808 997.5,243C 985.805,241.528 980.471,246.695 981.5,258.5C 980.471,265.27 982.805,270.437 988.5,274C 992.5,274.667 996.5,274.667 1000.5,274C 1003.27,271.746 1004.94,268.913 1005.5,265.5C 1009.5,265.5 1013.5,265.5 1017.5,265.5C 1017.58,268.271 1017.08,270.937 1016,273.5C 1013.47,276.063 1011.3,278.897 1009.5,282C 999.463,286.561 989.463,286.561 979.5,282C 973.787,277.47 970.453,271.637 969.5,264.5C 969.081,258.014 969.748,251.681 971.5,245.5C 974.262,239.07 978.928,234.737 985.5,232.5 Z"/></g>
<g><path style="opacity:1" fill="#a7a7a7" d="M 882.5,285.5 C 882.5,268.5 882.5,251.5 882.5,234.5C 878.833,234.5 875.167,234.5 871.5,234.5C 871.5,251.5 871.5,268.5 871.5,285.5C 870.503,268.341 870.17,251.008 870.5,233.5C 874.833,233.5 879.167,233.5 883.5,233.5C 883.83,251.008 883.497,268.341 882.5,285.5 Z"/></g>
<g><path style="opacity:1" fill="#fdfdfd" d="M 882.5,285.5 C 878.833,285.5 875.167,285.5 871.5,285.5C 871.5,268.5 871.5,251.5 871.5,234.5C 875.167,234.5 878.833,234.5 882.5,234.5C 882.5,251.5 882.5,268.5 882.5,285.5 Z"/></g>
<g><path style="opacity:1" fill="#bdbdbd" d="M 914.5,237.5 C 910.134,235.629 905.467,234.962 900.5,235.5C 900.5,251.833 900.5,268.167 900.5,284.5C 903.5,284.5 906.5,284.5 909.5,284.5C 909.173,274.985 909.506,265.652 910.5,256.5C 910.5,266.167 910.5,275.833 910.5,285.5C 906.5,285.5 902.5,285.5 898.5,285.5C 898.333,268.497 898.5,251.497 899,234.5C 903.413,233.368 907.913,233.201 912.5,234C 913.823,234.816 914.489,235.983 914.5,237.5 Z"/></g>
<g><path style="opacity:1" fill="#f9f9f9" d="M 942.5,234.5 C 946.5,234.5 950.5,234.5 954.5,234.5C 954.5,251.167 954.5,267.833 954.5,284.5C 951.5,284.5 948.5,284.5 945.5,284.5C 945.5,275.167 945.5,265.833 945.5,256.5C 943.821,256.285 942.821,256.952 942.5,258.5C 942.5,258.833 942.5,259.167 942.5,259.5C 941.89,260.391 941.557,261.391 941.5,262.5C 939.081,266.064 937.414,270.064 936.5,274.5C 934.508,277.826 932.841,281.326 931.5,285C 928.518,285.498 925.518,285.665 922.5,285.5C 921.811,281.931 920.811,278.431 919.5,275C 917.244,270.03 914.911,265.197 912.5,260.5C 912.34,258.847 911.674,257.514 910.5,256.5C 909.506,265.652 909.173,274.985 909.5,284.5C 906.5,284.5 903.5,284.5 900.5,284.5C 900.5,268.167 900.5,251.833 900.5,235.5C 905.467,234.962 910.134,235.629 914.5,237.5C 915.795,239.979 916.795,242.646 917.5,245.5C 917.755,247.967 918.755,249.967 920.5,251.5C 923.098,256.364 925.431,261.364 927.5,266.5C 932.206,255.532 937.206,244.865 942.5,234.5 Z"/></g>
<g><path style="opacity:1" fill="#b2b2b2" d="M 942.5,234.5 C 946.9,233.177 951.4,233.177 956,234.5C 956.5,251.497 956.667,268.497 956.5,285.5C 952.5,285.5 948.5,285.5 944.5,285.5C 945.138,276.105 944.471,267.105 942.5,258.5C 942.821,256.952 943.821,256.285 945.5,256.5C 945.5,265.833 945.5,275.167 945.5,284.5C 948.5,284.5 951.5,284.5 954.5,284.5C 954.5,267.833 954.5,251.167 954.5,234.5C 950.5,234.5 946.5,234.5 942.5,234.5 Z"/></g>
<g><path style="opacity:1" fill="#7c7c7c" d="M 917.5,245.5 C 919.245,247.033 920.245,249.033 920.5,251.5C 918.755,249.967 917.755,247.967 917.5,245.5 Z"/></g>
<g><path style="opacity:1" fill="#767676" d="M 971.5,245.5 C 969.748,251.681 969.081,258.014 969.5,264.5C 968.35,259.684 968.184,254.684 969,249.5C 969.2,247.68 970.034,246.347 971.5,245.5 Z"/></g>
<g><path style="opacity:1" fill="#5f5f5f" d="M 942.5,259.5 C 942.5,259.167 942.5,258.833 942.5,258.5C 944.471,267.105 945.138,276.105 944.5,285.5C 943.833,276.833 943.167,268.167 942.5,259.5 Z"/></g>
<g><path style="opacity:1" fill="#3d3d3d" d="M 910.5,256.5 C 911.674,257.514 912.34,258.847 912.5,260.5C 911.833,268.833 911.167,277.167 910.5,285.5C 910.5,275.833 910.5,266.167 910.5,256.5 Z"/></g>
<g><path style="opacity:1" fill="#606060" d="M 941.5,262.5 C 940.586,266.936 938.919,270.936 936.5,274.5C 937.414,270.064 939.081,266.064 941.5,262.5 Z"/></g>
<g><path style="opacity:1" fill="#888888" d="M 843.5,336.5 C 846.152,336.41 848.485,337.076 850.5,338.5C 847.848,338.59 845.515,337.924 843.5,336.5 Z"/></g>
<g><path style="opacity:1" fill="#1f1f1f" d="M 1034.5,337.5 C 1033.05,338.302 1031.38,338.802 1029.5,339C 969.999,339.832 910.665,339.665 851.5,338.5C 912.514,338.807 973.514,338.473 1034.5,337.5 Z"/></g>
<g><path style="opacity:1" fill="#120c0e" d="M 768.5,403.5 C 776.588,402.052 781.921,405.052 784.5,412.5C 782.738,412.357 781.071,412.691 779.5,413.5C 775.524,407.314 771.024,406.981 766,412.5C 765.333,416.167 765.333,419.833 766,423.5C 771.558,429.241 776.225,428.574 780,421.5C 782.123,421.966 783.623,423.133 784.5,425C 780.384,432.431 774.384,434.431 766.5,431C 761.798,427.578 759.798,422.912 760.5,417C 760.229,410.702 762.896,406.202 768.5,403.5 Z"/></g>
<g><path style="opacity:1" fill="#0c0000" d="M 812.5,403.5 C 814.167,403.5 815.833,403.5 817.5,403.5C 817.5,413.167 817.5,422.833 817.5,432.5C 815.833,432.5 814.167,432.5 812.5,432.5C 812.5,422.833 812.5,413.167 812.5,403.5 Z"/></g>
<g><path style="opacity:1" fill="#0a0015" d="M 870.5,403.5 C 872.167,403.5 873.833,403.5 875.5,403.5C 875.5,413.167 875.5,422.833 875.5,432.5C 873.833,432.5 872.167,432.5 870.5,432.5C 870.5,422.833 870.5,413.167 870.5,403.5 Z"/></g>
<g><path style="opacity:1" fill="#1b1115" d="M 916.5,403.5 C 918.5,403.5 920.5,403.5 922.5,403.5C 922.5,413.167 922.5,422.833 922.5,432.5C 920.179,432.771 918.179,432.104 916.5,430.5C 911.027,433.838 906.527,432.838 903,427.5C 902.133,423.044 902.466,418.711 904,414.5C 907.736,410.988 911.736,410.655 916,413.5C 916.498,410.183 916.665,406.85 916.5,403.5 Z"/></g>
<g><path style="opacity:1" fill="#191218" d="M 1014.5,403.5 C 1016.5,403.5 1018.5,403.5 1020.5,403.5C 1020.5,413.167 1020.5,422.833 1020.5,432.5C 1018.18,432.771 1016.18,432.104 1014.5,430.5C 1009.03,433.838 1004.53,432.838 1001,427.5C 1000.21,423.074 1000.54,418.741 1002,414.5C 1005.74,410.988 1009.74,410.655 1014,413.5C 1014.5,410.183 1014.67,406.85 1014.5,403.5 Z"/></g>
<g><path style="opacity:1" fill="#221219" d="M 1058.5,403.5 C 1060.5,403.5 1062.5,403.5 1064.5,403.5C 1064.5,413.167 1064.5,422.833 1064.5,432.5C 1062.5,432.5 1060.5,432.5 1058.5,432.5C 1058.5,422.833 1058.5,413.167 1058.5,403.5 Z"/></g>
<g><path style="opacity:1" fill="#1a1013" d="M 793.5,411.5 C 798.118,410.924 802.285,411.924 806,414.5C 806.19,420.416 806.69,426.249 807.5,432C 805.193,432.779 803.193,432.279 801.5,430.5C 792.983,435.008 788.817,432.675 789,423.5C 792.939,421.669 796.772,419.836 800.5,418C 798.122,414.659 795.788,414.826 793.5,418.5C 792.264,417.754 790.93,417.421 789.5,417.5C 789.657,414.682 790.991,412.682 793.5,411.5 Z"/></g>
<g><path style="opacity:1" fill="#11090c" d="M 828.5,411.5 C 834.3,410.399 838.3,412.399 840.5,417.5C 839.07,417.421 837.736,417.754 836.5,418.5C 834.056,414.979 831.222,414.645 828,417.5C 827.071,421.244 827.571,424.744 829.5,428C 833.141,429.315 835.474,428.149 836.5,424.5C 838.225,425.015 839.892,425.682 841.5,426.5C 835.733,434.062 829.566,434.395 823,427.5C 820.904,420.569 822.737,415.236 828.5,411.5 Z"/></g>
<g><path style="opacity:1" fill="#0d0403" d="M 845.5,411.5 C 847.167,411.5 848.833,411.5 850.5,411.5C 850.172,416.875 850.505,422.208 851.5,427.5C 853.969,429.007 856.135,428.673 858,426.5C 858.499,421.511 858.666,416.511 858.5,411.5C 860.167,411.5 861.833,411.5 863.5,411.5C 863.5,418.5 863.5,425.5 863.5,432.5C 861.234,432.859 859.401,432.192 858,430.5C 854.299,433.046 850.633,433.046 847,430.5C 845.584,424.285 845.084,417.952 845.5,411.5 Z"/></g>
<g><path style="opacity:1" fill="#140b0e" d="M 884.5,411.5 C 887.518,411.335 890.518,411.502 893.5,412C 894.931,412.465 896.097,413.299 897,414.5C 897.211,420.218 897.711,425.885 898.5,431.5C 896.264,432.812 894.264,432.479 892.5,430.5C 888.037,433.392 883.87,433.059 880,429.5C 878.959,426.364 879.793,423.864 882.5,422C 885.101,421.08 887.768,420.413 890.5,420C 893.249,417.577 892.749,416.077 889,415.5C 886.83,415.672 885.163,416.672 884,418.5C 882.605,418.22 881.438,417.553 880.5,416.5C 881.857,414.814 883.19,413.148 884.5,411.5 Z"/></g>
<g><path style="opacity:1" fill="#170f13" d="M 933.5,411.5 C 947.087,411.846 950.754,418.013 944.5,430C 931.991,435.003 926.157,430.837 927,417.5C 928.872,415.153 931.039,413.153 933.5,411.5 Z"/></g>
<g><path style="opacity:1" fill="#0a0613" d="M 952.5,411.5 C 954.766,411.141 956.599,411.808 958,413.5C 959.789,411.771 961.956,411.104 964.5,411.5C 964.5,413.167 964.5,414.833 964.5,416.5C 962.409,416.318 960.409,416.652 958.5,417.5C 957.506,422.456 957.173,427.456 957.5,432.5C 955.833,432.5 954.167,432.5 952.5,432.5C 952.5,425.5 952.5,418.5 952.5,411.5 Z"/></g>
<g><path style="opacity:1" fill="#181116" d="M 971.5,411.5 C 976.118,410.924 980.285,411.924 984,414.5C 984.211,420.218 984.711,425.885 985.5,431.5C 983.164,432.712 980.997,432.379 979,430.5C 970.64,434.937 966.64,432.604 967,423.5C 970.939,421.669 974.772,419.836 978.5,418C 978.266,416.268 977.266,415.434 975.5,415.5C 973.653,416.186 971.986,417.186 970.5,418.5C 967.918,418.253 967.085,416.92 968,414.5C 969.145,413.364 970.312,412.364 971.5,411.5 Z"/></g>
<g><path style="opacity:1" fill="#0f0a11" d="M 1029.5,411.5 C 1038.27,410.866 1042.93,414.866 1043.5,423.5C 1038.83,423.5 1034.17,423.5 1029.5,423.5C 1029.82,427.976 1032.16,429.476 1036.5,428C 1037,427.5 1037.5,427 1038,426.5C 1043.39,427.652 1043.22,429.486 1037.5,432C 1029.11,433.944 1024.78,430.611 1024.5,422C 1024.18,417.4 1025.85,413.9 1029.5,411.5 Z"/></g>
<g><path style="opacity:1" fill="#13080e" d="M 1069.5,411.5 C 1071.82,411.229 1073.82,411.896 1075.5,413.5C 1079.56,410.703 1083.4,411.036 1087,414.5C 1091,410.5 1095,410.5 1099,414.5C 1099.5,420.491 1099.67,426.491 1099.5,432.5C 1097.83,432.5 1096.17,432.5 1094.5,432.5C 1094.67,427.156 1094.5,421.823 1094,416.5C 1092.2,415.233 1090.37,415.233 1088.5,416.5C 1087.51,421.792 1087.17,427.125 1087.5,432.5C 1085.5,432.5 1083.5,432.5 1081.5,432.5C 1081.67,427.156 1081.5,421.823 1081,416.5C 1078.73,415.065 1076.73,415.398 1075,417.5C 1074.5,422.489 1074.33,427.489 1074.5,432.5C 1072.83,432.5 1071.17,432.5 1069.5,432.5C 1069.5,425.5 1069.5,418.5 1069.5,411.5 Z"/></g>
<g><path style="opacity:1" fill="#191014" d="M 1110.5,411.5 C 1115.91,410.634 1120.25,412.3 1123.5,416.5C 1120.68,418.714 1118.34,418.548 1116.5,416C 1114.76,415.349 1113.1,415.515 1111.5,416.5C 1110.34,419.784 1110.18,423.118 1111,426.5C 1114.57,429.4 1117.4,428.733 1119.5,424.5C 1120.74,425.246 1122.07,425.579 1123.5,425.5C 1123.1,429.07 1121.1,431.236 1117.5,432C 1111.8,433.565 1107.63,431.732 1105,426.5C 1103.09,419.97 1104.92,414.97 1110.5,411.5 Z"/></g>
<g><path style="opacity:1" fill="#f0f3f3" d="M 910.5,415.5 C 912.722,415.178 914.556,415.845 916,417.5C 916.667,420.5 916.667,423.5 916,426.5C 912.988,429.25 910.321,428.917 908,425.5C 907.333,422.833 907.333,420.167 908,417.5C 908.995,416.934 909.828,416.267 910.5,415.5 Z"/></g>
<g><path style="opacity:1" fill="#f6f3ed" d="M 934.5,415.5 C 941.314,415.49 943.814,418.823 942,425.5C 939.294,428.978 936.294,429.311 933,426.5C 932.013,422.525 932.513,418.859 934.5,415.5 Z"/></g>
<g><path style="opacity:1" fill="#f2f3f0" d="M 1008.5,415.5 C 1010.72,415.178 1012.56,415.845 1014,417.5C 1014.67,420.5 1014.67,423.5 1014,426.5C 1011.41,429.034 1008.75,429.034 1006,426.5C 1005.33,423.5 1005.33,420.5 1006,417.5C 1006.99,416.934 1007.83,416.267 1008.5,415.5 Z"/></g>
<g><path style="opacity:1" fill="#f3f5ef" d="M 1031.5,415.5 C 1035.35,415.019 1037.35,416.686 1037.5,420.5C 1034.83,420.5 1032.17,420.5 1029.5,420.5C 1029.39,418.486 1030.06,416.82 1031.5,415.5 Z"/></g>
<g><path style="opacity:1" fill="#e5e8f0" d="M 799.5,422.5 C 801.229,427.094 799.562,428.927 794.5,428C 793.483,426.951 793.316,425.784 794,424.5C 795.948,423.891 797.782,423.224 799.5,422.5 Z"/></g>
<g><path style="opacity:1" fill="#f2e9de" d="M 889.5,422.5 C 890.5,422.5 891.5,422.5 892.5,422.5C 893.127,425.864 891.794,427.864 888.5,428.5C 886.734,428.566 885.734,427.732 885.5,426C 886.347,424.229 887.68,423.063 889.5,422.5 Z"/></g>
<g><path style="opacity:1" fill="#eaeeee" d="M 977.5,422.5 C 979.229,427.094 977.562,428.927 972.5,428C 971.483,426.951 971.316,425.784 972,424.5C 973.948,423.891 975.782,423.224 977.5,422.5 Z"/></g>
<g><path style="opacity:1" fill="#f5f5f5" d="M 726.5,467.5 C 869.834,467.333 1013.17,467.5 1156.5,468C 1159,469.167 1160.83,471 1162,473.5C 1162.67,491.167 1162.67,508.833 1162,526.5C 1160.83,529 1159,530.833 1156.5,532C 1013.17,532.667 869.833,532.667 726.5,532C 724,530.833 722.167,529 721,526.5C 720.333,508.833 720.333,491.167 721,473.5C 722.36,470.977 724.193,468.977 726.5,467.5 Z"/></g>
<g><path style="opacity:1" fill="#8facc9" d="M 756.5,491.5 C 757.809,493.571 758.475,496.071 758.5,499C 758.167,501.5 757.833,504 757.5,506.5C 756.506,501.544 756.173,496.544 756.5,491.5 Z"/></g>
<g><path style="opacity:1" fill="#888592" d="M 777.5,495.5 C 779.086,495.693 780.753,496.027 782.5,496.5C 781.753,496.736 780.92,497.07 780,497.5C 779.821,500.553 779.321,503.553 778.5,506.5C 777.511,502.893 777.177,499.226 777.5,495.5 Z"/></g>
<g><path style="opacity:1" fill="#7a7883" d="M 761.5,492.5 C 762.186,493.848 763.186,495.015 764.5,496C 761.909,499.297 761.909,502.631 764.5,506C 763.552,506.483 762.552,506.649 761.5,506.5C 762.029,502.649 761.362,499.149 759.5,496C 760.973,495.29 761.64,494.124 761.5,492.5 Z"/></g>
<g><path style="opacity:1" fill="#83828b" d="M 746.5,491.5 C 747.675,491.281 748.675,491.614 749.5,492.5C 752.124,497.002 753.457,501.669 753.5,506.5C 752.738,505.372 752.071,504.205 751.5,503C 749.19,502.503 746.857,502.337 744.5,502.5C 744.934,505.166 743.934,506.333 741.5,506C 743.863,501.41 745.53,496.577 746.5,491.5 Z"/></g>
<g><path style="opacity:1" fill="#edeade" d="M 747.5,494.5 C 749.043,495.736 750.043,497.402 750.5,499.5C 749.311,500.429 747.978,500.762 746.5,500.5C 746.517,498.435 746.85,496.435 747.5,494.5 Z"/></g>
<g><path style="opacity:1" fill="#868287" d="M 785.5,495.5 C 787.591,495.318 789.591,495.652 791.5,496.5C 792.833,499.833 792.833,503.167 791.5,506.5C 789.071,506.579 786.571,506.245 784,505.5C 783.333,504.167 783.333,502.833 784,501.5C 786.052,500.277 788.219,499.277 790.5,498.5C 788.641,495.981 786.641,495.981 784.5,498.5C 784.167,498.167 783.833,497.833 783.5,497.5C 784.243,496.818 784.909,496.151 785.5,495.5 Z"/></g>
<g><path style="opacity:1" fill="#eae9e3" d="M 785.5,501.5 C 790.943,501.201 791.61,502.535 787.5,505.5C 785.889,504.68 785.222,503.346 785.5,501.5 Z"/></g>
<g><path style="opacity:1" fill="#8d8284" d="M 766.5,495.5 C 767.477,498.287 767.81,501.287 767.5,504.5C 769.167,504.5 770.833,504.5 772.5,504.5C 772.183,501.428 772.516,498.428 773.5,495.5C 774.833,499.167 774.833,502.833 773.5,506.5C 771.398,506.521 769.232,506.187 767,505.5C 766.502,502.183 766.335,498.85 766.5,495.5 Z"/></g>
<g><path style="opacity:1" fill="#f5f5f5" d="M 726.5,552.5 C 869.834,552.333 1013.17,552.5 1156.5,553C 1159,554.167 1160.83,556 1162,558.5C 1162.67,576.167 1162.67,593.833 1162,611.5C 1160.83,614 1159,615.833 1156.5,617C 1013.17,617.667 869.833,617.667 726.5,617C 724,615.833 722.167,614 721,611.5C 720.333,593.833 720.333,576.167 721,558.5C 722.36,555.977 724.193,553.977 726.5,552.5 Z"/></g>
<g><path style="opacity:1" fill="#848891" d="M 743.5,576.5 C 746.187,576.336 748.854,576.503 751.5,577C 754.838,578.988 755.172,581.321 752.5,584C 750.323,585.202 747.989,585.702 745.5,585.5C 745.799,587.604 745.466,589.604 744.5,591.5C 743.506,586.544 743.173,581.544 743.5,576.5 Z"/></g>
<g><path style="opacity:1" fill="#f5f5f3" d="M 745.5,578.5 C 747.5,578.5 749.5,578.5 751.5,578.5C 751.938,582.908 749.938,584.575 745.5,583.5C 745.5,581.833 745.5,580.167 745.5,578.5 Z"/></g>
<g><path style="opacity:1" fill="#86818a" d="M 779.5,580.5 C 786.263,580.547 788.263,583.714 785.5,590C 780.394,592.729 777.394,591.229 776.5,585.5C 776.771,583.307 777.771,581.641 779.5,580.5 Z"/></g>
<g><path style="opacity:1" fill="#e9ede8" d="M 780.5,581.5 C 784.009,582.474 785.176,584.807 784,588.5C 780.916,591.142 779.083,590.309 778.5,586C 778.519,584.167 779.185,582.667 780.5,581.5 Z"/></g>
<g><path style="opacity:1" fill="#848185" d="M 758.5,580.5 C 762.693,580.362 765.027,582.362 765.5,586.5C 762.753,586.187 760.086,586.52 757.5,587.5C 759.4,590.129 761.4,590.129 763.5,587.5C 764.739,589.007 764.405,590.174 762.5,591C 756.687,591.171 754.52,588.338 756,582.5C 756.995,581.934 757.828,581.267 758.5,580.5 Z"/></g>
<g><path style="opacity:1" fill="#dbdbd7" d="M 759.5,581.5 C 761.384,581.712 762.717,582.712 763.5,584.5C 761.604,585.466 759.604,585.799 757.5,585.5C 757.527,583.801 758.194,582.467 759.5,581.5 Z"/></g>
<g><path style="opacity:1" fill="#828189" d="M 768.5,580.5 C 770.977,580.051 772.977,580.717 774.5,582.5C 772.688,582.426 770.688,582.759 768.5,583.5C 770.632,584.598 772.798,585.598 775,586.5C 774.902,591.288 772.569,592.621 768,590.5C 767.333,589.5 767.333,588.5 768,587.5C 769.406,590.922 771.239,591.255 773.5,588.5C 771.821,587.218 769.987,586.218 768,585.5C 767.36,583.735 767.527,582.068 768.5,580.5 Z"/></g>
<g><path style="opacity:1" fill="#45fcfc" d="M 773.5,637.5 C 884.501,637.333 995.501,637.5 1106.5,638C 1130.92,643.34 1142.42,658.507 1141,683.5C 1137.5,703 1126,714.5 1106.5,718C 995.5,718.667 884.5,718.667 773.5,718C 752.612,712.062 741.946,698.229 741.5,676.5C 743.408,656.263 754.074,643.263 773.5,637.5 Z"/></g>
<g><path style="opacity:1" fill="#0a0c0f" d="M 840.5,667.5 C 845.022,666.62 848.355,668.12 850.5,672C 849.991,673.169 849.158,674.002 848,674.5C 845.374,670.928 842.374,670.595 839,673.5C 837.247,678.357 838.747,681.357 843.5,682.5C 845.626,682.27 847.293,681.27 848.5,679.5C 851.262,682.402 850.595,684.569 846.5,686C 836.987,686.543 833.487,682.043 836,672.5C 837.025,670.313 838.525,668.646 840.5,667.5 Z"/></g>
<g><path style="opacity:1" fill="#01000f" d="M 869.5,667.5 C 870.5,667.5 871.5,667.5 872.5,667.5C 872.5,673.833 872.5,680.167 872.5,686.5C 871.5,686.5 870.5,686.5 869.5,686.5C 869.5,680.167 869.5,673.833 869.5,667.5 Z"/></g>
<g><path style="opacity:1" fill="#18171a" d="M 906.5,667.5 C 907.833,667.5 909.167,667.5 910.5,667.5C 910.5,673.833 910.5,680.167 910.5,686.5C 909.167,686.5 907.833,686.5 906.5,686.5C 906.5,680.167 906.5,673.833 906.5,667.5 Z"/></g>
<g><path style="opacity:1" fill="#000000" d="M 1006.5,667.5 C 1007.5,667.5 1008.5,667.5 1009.5,667.5C 1009.5,673.833 1009.5,680.167 1009.5,686.5C 1008.5,686.5 1007.5,686.5 1006.5,686.5C 1006.5,680.167 1006.5,673.833 1006.5,667.5 Z"/></g>
<g><path style="opacity:1" fill="#090c0f" d="M 856.5,672.5 C 858.92,672.292 861.253,672.626 863.5,673.5C 864.195,677.713 864.861,681.879 865.5,686C 862.256,685.911 858.923,685.911 855.5,686C 853.675,684.534 853.175,682.701 854,680.5C 855.885,678.98 858.051,677.98 860.5,677.5C 861.386,676.675 861.719,675.675 861.5,674.5C 858.846,675.342 856.179,675.842 853.5,676C 854.71,674.961 855.71,673.794 856.5,672.5 Z"/></g>
<g><path style="opacity:1" fill="#12151c" d="M 878.5,672.5 C 881.602,672.154 884.435,672.821 887,674.5C 887.27,675.932 886.604,676.932 885,677.5C 881.811,674.507 879.978,675.174 879.5,679.5C 879.978,683.826 881.811,684.493 885,681.5C 887.122,682.22 887.622,683.387 886.5,685C 877.791,687.966 874.291,684.799 876,675.5C 877.045,674.627 877.878,673.627 878.5,672.5 Z"/></g>
<g><path style="opacity:1" fill="#111217" d="M 890.5,672.5 C 891.833,672.5 893.167,672.5 894.5,672.5C 894.335,675.85 894.502,679.183 895,682.5C 896.333,683.833 897.667,683.833 899,682.5C 899.498,679.183 899.665,675.85 899.5,672.5C 900.5,672.5 901.5,672.5 902.5,672.5C 902.5,677.167 902.5,681.833 902.5,686.5C 900.136,685.471 897.803,685.471 895.5,686.5C 893.813,686.24 892.313,685.573 891,684.5C 890.501,680.514 890.334,676.514 890.5,672.5 Z"/></g>
<g><path style="opacity:1" fill="#14151c" d="M 915.5,672.5 C 918.685,672.02 921.519,672.686 924,674.5C 924.203,678.421 924.703,682.255 925.5,686C 921.876,685.624 918.209,685.624 914.5,686C 912.675,684.534 912.175,682.701 913,680.5C 914.945,679.137 917.112,678.303 919.5,678C 920.337,676.989 920.67,675.822 920.5,674.5C 918.4,674.477 916.567,675.144 915,676.5C 914.5,676.167 914,675.833 913.5,675.5C 914.193,674.482 914.859,673.482 915.5,672.5 Z"/></g>
<g><path style="opacity:1" fill="#090a15" d="M 928.5,672.5 C 931.062,673.371 933.728,673.371 936.5,672.5C 936.5,673.5 936.5,674.5 936.5,675.5C 934.856,675.286 933.356,675.62 932,676.5C 931.502,679.817 931.335,683.15 931.5,686.5C 930.5,686.5 929.5,686.5 928.5,686.5C 928.5,681.833 928.5,677.167 928.5,672.5 Z"/></g>
<g><path style="opacity:1" fill="#151926" d="M 945.5,672.5 C 947.864,673.529 950.197,673.529 952.5,672.5C 954.187,672.76 955.687,673.427 957,674.5C 959.667,671.833 962.333,671.833 965,674.5C 965.499,678.486 965.666,682.486 965.5,686.5C 964.167,686.5 962.833,686.5 961.5,686.5C 961.5,682.833 961.5,679.167 961.5,675.5C 960.178,675.33 959.011,675.663 958,676.5C 957.502,679.817 957.335,683.15 957.5,686.5C 956.167,686.5 954.833,686.5 953.5,686.5C 953.5,682.833 953.5,679.167 953.5,675.5C 952.178,675.33 951.011,675.663 950,676.5C 949.502,679.817 949.335,683.15 949.5,686.5C 948.167,686.5 946.833,686.5 945.5,686.5C 945.5,681.833 945.5,677.167 945.5,672.5 Z"/></g>
<g><path style="opacity:1" fill="#13171a" d="M 971.5,672.5 C 977.639,671.726 980.639,674.392 980.5,680.5C 977.428,680.183 974.428,680.516 971.5,681.5C 972.966,683.657 974.8,683.99 977,682.5C 980.097,683.289 980.264,684.456 977.5,686C 969.11,687.275 965.943,683.775 968,675.5C 969.145,674.364 970.312,673.364 971.5,672.5 Z"/></g>
<g><path style="opacity:1" fill="#12121a" d="M 983.5,672.5 C 984.5,672.5 985.5,672.5 986.5,672.5C 986.335,675.85 986.502,679.183 987,682.5C 988.333,683.833 989.667,683.833 991,682.5C 991.498,679.183 991.665,675.85 991.5,672.5C 992.833,672.5 994.167,672.5 995.5,672.5C 995.5,677.167 995.5,681.833 995.5,686.5C 992.762,685.763 990.095,685.763 987.5,686.5C 985.971,686.471 984.804,685.804 984,684.5C 983.501,680.514 983.334,676.514 983.5,672.5 Z"/></g>
<g><path style="opacity:1" fill="#04040a" d="M 1013.5,672.5 C 1015.86,673.529 1018.2,673.529 1020.5,672.5C 1022.06,672.722 1023.39,673.389 1024.5,674.5C 1026.58,672.396 1028.92,672.062 1031.5,673.5C 1032.49,677.783 1032.83,682.116 1032.5,686.5C 1031.5,686.5 1030.5,686.5 1029.5,686.5C 1029.67,683.15 1029.5,679.817 1029,676.5C 1027.67,675.167 1026.33,675.167 1025,676.5C 1024.5,679.817 1024.33,683.15 1024.5,686.5C 1023.5,686.5 1022.5,686.5 1021.5,686.5C 1021.67,683.15 1021.5,679.817 1021,676.5C 1019.67,675.167 1018.33,675.167 1017,676.5C 1016.5,679.817 1016.33,683.15 1016.5,686.5C 1015.5,686.5 1014.5,686.5 1013.5,686.5C 1013.5,681.833 1013.5,677.167 1013.5,672.5 Z"/></g>
<g><path style="opacity:1" fill="#0c0c16" d="M 1039.5,672.5 C 1043.16,672 1046.16,673.167 1048.5,676C 1047.5,676.5 1046.5,677 1045.5,677.5C 1043.91,675.438 1042.07,675.105 1040,676.5C 1038.22,682.906 1040.06,684.572 1045.5,681.5C 1049.03,682.582 1049.03,684.082 1045.5,686C 1037.67,686.821 1034.83,683.321 1037,675.5C 1038.04,674.627 1038.88,673.627 1039.5,672.5 Z"/></g>
<g><path style="opacity:1" fill="#44f5ed" d="M 972.5,675.5 C 974.346,675.222 975.68,675.889 976.5,677.5C 974.833,678.833 973.167,678.833 971.5,677.5C 971.863,676.817 972.196,676.15 972.5,675.5 Z"/></g>
<g><path style="opacity:1" fill="#47dad4" d="M 859.5,679.5 C 860.586,679.62 861.253,680.287 861.5,681.5C 860.438,684.966 858.771,685.3 856.5,682.5C 857.34,681.265 858.34,680.265 859.5,679.5 Z"/></g>
<g><path style="opacity:1" fill="#42e9e6" d="M 918.5,679.5 C 920.344,680.204 920.844,681.537 920,683.5C 918.989,684.337 917.822,684.67 916.5,684.5C 916.365,682.446 917.032,680.779 918.5,679.5 Z"/></g>
<g><path style="opacity:1" fill="#4afefe" d="M 773.5,738.5 C 884.501,738.333 995.501,738.5 1106.5,739C 1131.23,744.618 1142.73,760.118 1141,785.5C 1137.17,804 1126,815.167 1107.5,819C 996.167,819.667 884.833,819.667 773.5,819C 752.762,813.189 742.095,799.522 741.5,778C 743.173,757.498 753.84,744.332 773.5,738.5 Z"/></g>
<g><path style="opacity:1" fill="#fdfdfd" d="M 776.5,743.5 C 886.167,743.333 995.834,743.5 1105.5,744C 1126.58,748.742 1136.74,761.909 1136,783.5C 1133.17,801 1123,811.167 1105.5,814C 995.833,814.667 886.167,814.667 776.5,814C 757.988,809.532 747.988,797.699 746.5,778.5C 748.377,759.685 758.377,748.019 776.5,743.5 Z"/></g>
<g><path style="opacity:1" fill="#0a0209" d="M 832.5,768.5 C 836.833,768.5 841.167,768.5 845.5,768.5C 845.5,769.833 845.5,771.167 845.5,772.5C 842.167,772.5 838.833,772.5 835.5,772.5C 835.5,773.5 835.5,774.5 835.5,775.5C 838.833,775.5 842.167,775.5 845.5,775.5C 845.5,776.833 845.5,778.167 845.5,779.5C 842.167,779.5 838.833,779.5 835.5,779.5C 835.5,780.833 835.5,782.167 835.5,783.5C 839.167,783.5 842.833,783.5 846.5,783.5C 846.5,784.833 846.5,786.167 846.5,787.5C 841.833,787.5 837.167,787.5 832.5,787.5C 832.5,781.167 832.5,774.833 832.5,768.5 Z"/></g>
<g><path style="opacity:1" fill="#1b1112" d="M 913.5,768.5 C 914.5,768.5 915.5,768.5 916.5,768.5C 916.5,774.833 916.5,781.167 916.5,787.5C 913.242,786.932 909.909,786.766 906.5,787C 902.5,782.667 902.5,778.333 906.5,774C 908.568,773.313 910.568,773.48 912.5,774.5C 913.466,772.604 913.799,770.604 913.5,768.5 Z"/></g>
<g><path style="opacity:1" fill="#01000f" d="M 994.5,768.5 C 995.5,768.5 996.5,768.5 997.5,768.5C 997.5,774.833 997.5,781.167 997.5,787.5C 996.5,787.5 995.5,787.5 994.5,787.5C 994.5,781.167 994.5,774.833 994.5,768.5 Z"/></g>
<g><path style="opacity:1" fill="#2f161c" d="M 1031.5,768.5 C 1032.83,768.5 1034.17,768.5 1035.5,768.5C 1035.5,774.833 1035.5,781.167 1035.5,787.5C 1034.17,787.5 1032.83,787.5 1031.5,787.5C 1031.5,781.167 1031.5,774.833 1031.5,768.5 Z"/></g>
<g><path style="opacity:1" fill="#25141a" d="M 868.5,768.5 C 869.238,770.663 870.238,772.83 871.5,775C 870.453,776.68 869.787,778.514 869.5,780.5C 870.021,782.924 870.688,785.257 871.5,787.5C 866.869,788.178 864.869,786.178 865.5,781.5C 863.469,776.297 864.469,771.963 868.5,768.5 Z"/></g>
<g><path style="opacity:1" fill="#29120e" d="M 984.5,768.5 C 989.238,768.602 989.238,769.935 984.5,772.5C 983.708,771.3 983.708,769.967 984.5,768.5 Z"/></g>
<g><path style="opacity:1" fill="#1b101a" d="M 849.5,773.5 C 851.124,773.36 852.29,774.027 853,775.5C 855.667,772.833 858.333,772.833 861,775.5C 861.499,779.486 861.666,783.486 861.5,787.5C 860.5,787.5 859.5,787.5 858.5,787.5C 858.665,784.15 858.498,780.817 858,777.5C 856.667,776.167 855.333,776.167 854,777.5C 853.502,780.817 853.335,784.15 853.5,787.5C 852.167,787.5 850.833,787.5 849.5,787.5C 849.5,782.833 849.5,778.167 849.5,773.5 Z"/></g>
<g><path style="opacity:1" fill="#13090f" d="M 876.5,773.5 C 882.709,772.749 885.709,775.415 885.5,781.5C 882.428,781.183 879.428,781.516 876.5,782.5C 878.099,784.729 880.099,785.062 882.5,783.5C 886.361,784.499 886.361,785.665 882.5,787C 874.91,787.729 872.077,784.229 874,776.5C 875.045,775.627 875.878,774.627 876.5,773.5 Z"/></g>
<g><path style="opacity:1" fill="#1b101a" d="M 888.5,773.5 C 890.124,773.36 891.29,774.027 892,775.5C 894.667,772.833 897.333,772.833 900,775.5C 900.499,779.486 900.666,783.486 900.5,787.5C 899.5,787.5 898.5,787.5 897.5,787.5C 897.665,784.15 897.498,780.817 897,777.5C 895.667,776.167 894.333,776.167 893,777.5C 892.502,780.817 892.335,784.15 892.5,787.5C 891.167,787.5 889.833,787.5 888.5,787.5C 888.5,782.833 888.5,778.167 888.5,773.5 Z"/></g>
<g><path style="opacity:1" fill="#161115" d="M 922.5,773.5 C 924.92,773.292 927.253,773.626 929.5,774.5C 930.195,778.713 930.861,782.879 931.5,787C 928.196,786.536 924.863,786.536 921.5,787C 918.204,782.256 919.538,779.589 925.5,779C 926.337,777.989 926.67,776.822 926.5,775.5C 924.516,775.383 922.85,776.05 921.5,777.5C 921.167,777 920.833,776.5 920.5,776C 921.056,774.989 921.722,774.156 922.5,773.5 Z"/></g>
<g><path style="opacity:1" fill="#160f16" d="M 945.5,773.5 C 953.379,773.216 956.212,776.883 954,784.5C 949.522,788.731 945.522,788.398 942,783.5C 940.581,779.082 941.748,775.749 945.5,773.5 Z"/></g>
<g><path style="opacity:1" fill="#22171c" d="M 967.5,773.5 C 970.602,773.154 973.435,773.821 976,775.5C 976.27,776.932 975.604,777.932 974,778.5C 970.811,775.507 968.978,776.174 968.5,780.5C 968.978,784.826 970.811,785.493 974,782.5C 976.122,783.22 976.622,784.387 975.5,786C 966.735,788.908 963.235,785.741 965,776.5C 966.045,775.627 966.878,774.627 967.5,773.5 Z"/></g>
<g><path style="opacity:1" fill="#140a0f" d="M 981.5,773.5 C 983.92,773.292 986.253,773.626 988.5,774.5C 989.195,778.713 989.861,782.879 990.5,787C 987.256,786.911 983.923,786.911 980.5,787C 978.675,785.534 978.175,783.701 979,781.5C 980.885,779.98 983.051,778.98 985.5,778.5C 986.386,777.675 986.719,776.675 986.5,775.5C 984.43,775.449 982.597,776.115 981,777.5C 980.5,777.167 980,776.833 979.5,776.5C 980.193,775.482 980.859,774.482 981.5,773.5 Z"/></g>
<g><path style="opacity:1" fill="#22171c" d="M 1003.5,773.5 C 1006.6,773.154 1009.44,773.821 1012,775.5C 1012.27,776.932 1011.6,777.932 1010,778.5C 1006.81,775.507 1004.98,776.174 1004.5,780.5C 1004.98,784.826 1006.81,785.493 1010,782.5C 1012.12,783.22 1012.62,784.387 1011.5,786C 1002.74,788.908 999.235,785.741 1001,776.5C 1002.04,775.627 1002.88,774.627 1003.5,773.5 Z"/></g>
<g><path style="opacity:1" fill="#0b0416" d="M 1016.5,773.5 C 1017.5,773.5 1018.5,773.5 1019.5,773.5C 1019.33,776.85 1019.5,780.183 1020,783.5C 1021.33,784.833 1022.67,784.833 1024,783.5C 1024.5,780.183 1024.67,776.85 1024.5,773.5C 1025.5,773.5 1026.5,773.5 1027.5,773.5C 1027.5,778.167 1027.5,782.833 1027.5,787.5C 1025.14,786.471 1022.8,786.471 1020.5,787.5C 1018.97,787.471 1017.8,786.804 1017,785.5C 1016.5,781.514 1016.33,777.514 1016.5,773.5 Z"/></g>
<g><path style="opacity:1" fill="#160e16" d="M 1041.5,773.5 C 1049.38,772.546 1052.55,775.879 1051,783.5C 1048.79,787.125 1045.63,788.292 1041.5,787C 1037.53,782.43 1037.53,777.93 1041.5,773.5 Z"/></g>
<g><path style="opacity:1" fill="#f5ece1" d="M 908.5,776.5 C 912.979,776.898 914.312,779.231 912.5,783.5C 910.958,784.747 909.458,784.747 908,783.5C 907.297,781.071 907.463,778.738 908.5,776.5 Z"/></g>
<g><path style="opacity:1" fill="#ece6e1" d="M 946.5,776.5 C 950.979,776.898 952.312,779.231 950.5,783.5C 947.167,785.167 945.167,784.167 944.5,780.5C 944.803,778.886 945.47,777.552 946.5,776.5 Z"/></g>
<g><path style="opacity:1" fill="#ede9e3" d="M 1042.5,776.5 C 1048.49,776.664 1049.82,779.164 1046.5,784C 1044.89,784.72 1043.39,784.554 1042,783.5C 1041.3,781.071 1041.46,778.738 1042.5,776.5 Z"/></g>
<g><path style="opacity:1" fill="#e6dcda" d="M 877.5,776.5 C 879.665,776.116 881.332,776.783 882.5,778.5C 880.5,779.833 878.5,779.833 876.5,778.5C 876.863,777.817 877.196,777.15 877.5,776.5 Z"/></g>
<g><path style="opacity:1" fill="#f1ddcb" d="M 925.5,780.5 C 927.344,781.204 927.844,782.537 927,784.5C 925.989,785.337 924.822,785.67 923.5,785.5C 923.365,783.446 924.032,781.779 925.5,780.5 Z"/></g>
<g><path style="opacity:1" fill="#dedad6" d="M 984.5,780.5 C 985.586,780.62 986.253,781.287 986.5,782.5C 985.438,785.966 983.771,786.3 981.5,783.5C 982.34,782.265 983.34,781.265 984.5,780.5 Z"/></g>
<g><path style="opacity:1" fill="#6a6a6a" d="M 1888.5,858.5 C 1889.79,859.29 1890.96,860.29 1892,861.5C 1893,860.5 1894,859.5 1895,858.5C 1895.45,861.094 1894.45,863.094 1892,864.5C 1889.74,863.084 1888.57,861.084 1888.5,858.5 Z"/></g>
</svg>
