<?xml version="1.0" encoding="UTF-8"?>
<svg version="1.1" xmlns="http://www.w3.org/2000/svg" width="1536" height="1024">
<path d="M0 0 C506.88 0 1013.76 0 1536 0 C1536 337.92 1536 675.84 1536 1024 C1029.12 1024 522.24 1024 0 1024 C0 686.08 0 348.16 0 0 Z " fill="#00A05B" transform="translate(0,0)"/>
<path d="M0 0 C1.27608124 -0.00554901 2.55216248 -0.01109802 3.86691284 -0.01681519 C7.3381146 -0.0309562 10.80851399 -0.01411033 14.27963877 0.00946999 C17.92737802 0.02971091 21.57508823 0.02369274 25.22286987 0.0213623 C31.34402556 0.02141572 37.46487097 0.04108211 43.5859375 0.07324219 C50.64679695 0.1101613 57.70725093 0.11891156 64.76819432 0.11194468 C71.58446951 0.10562481 78.40060678 0.1164192 85.2168541 0.13591003 C88.1074102 0.14405075 90.99789548 0.14679978 93.88846207 0.1452179 C97.92845108 0.14417025 101.96791287 0.16842523 106.0078125 0.1953125 C107.19763733 0.1923819 108.38746216 0.18945129 109.61334229 0.18643188 C117.87716404 0.27114239 125.10591711 1.14839352 131.50270939 6.99437809 C137.24156904 13.77514127 138.60965689 20.98976244 138.50561523 29.61352539 C138.51634819 31.18873962 138.51634819 31.18873962 138.52729797 32.79577637 C138.54408822 36.23735196 138.52483918 39.6776072 138.50341797 43.11914062 C138.50424749 45.52709561 138.50671 47.93505054 138.51072693 50.34300232 C138.51357826 55.37719875 138.49894686 60.41094863 138.47143555 65.44506836 C138.43733642 71.88318782 138.44338393 78.3205102 138.46209812 84.75866795 C138.4726884 89.72680757 138.46371201 94.69476314 138.4487133 99.66288567 C138.44354721 102.03623851 138.44399409 104.40961069 138.45025826 106.78296089 C138.4557355 110.10450423 138.43525405 113.42492287 138.40795898 116.74633789 C138.4177478 118.20308174 138.4177478 118.20308174 138.42773438 119.68925476 C138.32965113 126.7427866 137.06164749 133.18147164 132.12464237 138.50051212 C127.28579143 142.95111397 122.79014083 144.86017934 116.16398621 144.88265991 C114.45453072 144.89545486 114.45453072 144.89545486 112.71054077 144.9085083 C111.46938507 144.90760193 110.22822937 144.90669556 108.94946289 144.90576172 C107.6350975 144.91247894 106.32073212 144.91919617 104.96653748 144.92611694 C101.36721895 144.9437572 97.76799557 144.94847152 94.16863799 144.94974852 C91.91737557 144.95117194 89.66613719 144.95544519 87.41488075 144.96074295 C79.55367121 144.9792376 71.69252941 144.98741439 63.83129883 144.98583984 C56.51547884 144.984639 49.19995415 145.00573128 41.88420886 145.03732717 C35.59357516 145.06352283 29.3030377 145.07420575 23.0123499 145.07292902 C19.25951806 145.0724203 15.50694866 145.07805342 11.75417137 145.09928513 C7.56515871 145.12233844 3.37680293 145.11312658 -0.81225586 145.10107422 C-2.04733887 145.11231323 -3.28242188 145.12355225 -4.55493164 145.13513184 C-12.45871015 145.07738005 -17.86605186 144.12989704 -24.11376953 138.97460938 C-24.76925781 138.17796875 -24.76925781 138.17796875 -25.43798828 137.36523438 C-25.88787109 136.84445312 -26.33775391 136.32367187 -26.80126953 135.78710938 C-30.94284087 128.9944437 -31.56332915 122.87055618 -31.51367188 115.10351562 C-31.51892883 114.08131927 -31.52418579 113.05912292 -31.52960205 112.00595093 C-31.54274369 108.64638732 -31.53408442 105.28730232 -31.52392578 101.92773438 C-31.52594819 99.58178619 -31.52886101 97.23583862 -31.53262329 94.88989258 C-31.53703875 89.98089595 -31.53064048 85.07206344 -31.51660156 80.16308594 C-31.49951037 73.88187088 -31.5093557 67.60104044 -31.52731895 61.31983948 C-31.53817768 56.47787598 -31.53470081 51.63600314 -31.52693558 46.79403687 C-31.52493936 44.4784643 -31.52737245 42.1628834 -31.53437424 39.84732056 C-31.54202292 36.6069774 -31.5303361 33.36725058 -31.51367188 30.12695312 C-31.51974457 29.17710541 -31.52581726 28.22725769 -31.53207397 27.24862671 C-31.46003709 19.65842554 -30.08547871 12.80143132 -24.7380352 6.98709869 C-17.28423292 0.64582251 -9.43955993 -0.10558415 0 0 Z " fill="#FDFEFE" transform="translate(299.12548828125,432.384765625)"/>
<path d="M0 0 C44.88 0 89.76 0 136 0 C136 18.81 136 37.62 136 57 C130.37482905 62.62517095 130.37482905 62.62517095 125.64892578 62.62818909 C124.05917938 62.64717003 124.05917938 62.64717003 122.43731689 62.66653442 C120.70877472 62.64899612 120.70877472 62.64899612 118.9453125 62.63110352 C117.72366394 62.63825882 116.50201538 62.64541412 115.24334717 62.65278625 C111.89988014 62.66678487 108.55796286 62.65837922 105.2146225 62.63869596 C101.71224569 62.62228762 98.20991862 62.63112537 94.70751953 62.63621521 C88.82636783 62.64073377 82.94553443 62.62488146 77.06445312 62.59692383 C70.26997721 62.56487264 63.47607528 62.56488821 56.68155861 62.5821386 C50.13917485 62.59801543 43.59700107 62.59126281 37.05462646 62.57420158 C34.27319737 62.56733805 31.49193693 62.56835624 28.71051025 62.57574654 C24.82501429 62.58484672 20.94010563 62.56084884 17.0546875 62.53344727 C15.90232605 62.53997314 14.7499646 62.54649902 13.56268311 62.55322266 C12.50285217 62.5404982 11.44302124 62.52777374 10.35107422 62.5146637 C9.43300995 62.51185678 8.51494568 62.50904985 7.56906128 62.50615788 C5 62 5 62 0 58 C0 38.86 0 19.72 0 0 Z " fill="#009E5A" transform="translate(285,499)"/>
<path d="M0 0 C1.06687042 -0.01272446 2.13374084 -0.02544891 3.23294067 -0.03855896 C4.39824814 -0.03203308 5.5635556 -0.0255072 6.76417542 -0.01878357 C8.61105957 -0.03170692 8.61105957 -0.03170692 10.49525452 -0.04489136 C13.86954754 -0.0637069 17.24285896 -0.06444525 20.61712909 -0.05556989 C23.4352531 -0.05045852 26.25328909 -0.05775378 29.07140404 -0.06504196 C35.72053764 -0.08204244 42.36944176 -0.07847411 49.01856995 -0.06175232 C55.87499872 -0.04483199 62.73079081 -0.06066324 69.58715004 -0.0929752 C75.47690457 -0.11967885 81.366461 -0.12694506 87.25626999 -0.11846012 C90.77263872 -0.11353286 94.2886244 -0.11573481 97.80494499 -0.13624763 C101.72650416 -0.15802932 105.64729708 -0.13919716 109.56886292 -0.11643982 C110.73214615 -0.12813202 111.89542938 -0.13982422 113.09396362 -0.15187073 C114.69849899 -0.13288979 114.69849899 -0.13288979 116.33544922 -0.11352539 C117.26218665 -0.11293908 118.18892408 -0.11235277 119.14374447 -0.1117487 C121.73121643 0.5146637 121.73121643 0.5146637 126.73121643 5.5146637 C126.73121643 14.4246637 126.73121643 23.3346637 126.73121643 32.5146637 C81.85121643 32.5146637 36.97121643 32.5146637 -9.26878357 32.5146637 C-9.26878357 0.0280849 -9.26878357 0.0280849 0 0 Z " fill="#009D58" transform="translate(294.26878356933594,449.48533630371094)"/>
<path d="M0 0 C4.29 0 8.58 0 13 0 C13 24.42 13 48.84 13 74 C9.04 74 5.08 74 1 74 C0.34 72.35 -0.32 70.7 -1 69 C-1.721875 69.61875 -2.44375 70.2375 -3.1875 70.875 C-8.62844077 74.98593303 -13.32302068 75.69342164 -20 75 C-26.37281091 73.70423438 -31.27180247 70.33273824 -35 65 C-37.77737471 59.41571254 -38.51925131 54.24593161 -38.4375 48.0625 C-38.43137695 47.27270752 -38.42525391 46.48291504 -38.41894531 45.66918945 C-38.2597207 39.73807267 -37.34959567 35.00700806 -34 30 C-33.401875 29.071875 -32.80375 28.14375 -32.1875 27.1875 C-26.94062971 21.94062971 -23.29688856 20.73310753 -15.9375 20.5625 C-9.89520365 20.56917657 -5.36775789 21.63224211 -1 26 C-0.67 17.42 -0.34 8.84 0 0 Z " fill="#FBFDFC" transform="translate(907,459)"/>
<path d="M0 0 C6.17294063 3.69550626 9.64455434 9.03225231 11.87890625 15.79296875 C13.58053957 25.14352808 13.16892563 35.65633508 8.2734375 43.9609375 C3.89631243 49.01427813 -0.84458665 52.55863314 -7.62890625 53.26171875 C-17.84469599 53.30116195 -17.84469599 53.30116195 -22.7265625 49.9609375 C-23.3865625 49.3009375 -24.0465625 48.6409375 -24.7265625 47.9609375 C-25.0565625 55.5509375 -25.3865625 63.1409375 -25.7265625 70.9609375 C-30.0165625 70.9609375 -34.3065625 70.9609375 -38.7265625 70.9609375 C-38.7265625 47.5309375 -38.7265625 24.1009375 -38.7265625 -0.0390625 C-34.7665625 -0.0390625 -30.8065625 -0.0390625 -26.7265625 -0.0390625 C-26.0665625 1.2809375 -25.4065625 2.6009375 -24.7265625 3.9609375 C-24.31148437 3.6 -23.89640625 3.2390625 -23.46875 2.8671875 C-16.57580574 -2.32415128 -8.07097766 -3.0757594 0 0 Z " fill="#F8FCFB" transform="translate(1144.7265625,481.0390625)"/>
<path d="M0 0 C6.07124393 4.62570966 11.29232035 10.30139526 12.625 18 C13.52611255 28.80208672 12.97285288 37.52827409 6.1875 46.375 C1.09787047 51.58876684 -3.553765 53.12078718 -10.6875 53.3125 C-16.28044344 53.28255117 -20.30823449 52.06676551 -24.375 48 C-24.705 55.59 -25.035 63.18 -25.375 71 C-29.665 71 -33.955 71 -38.375 71 C-38.375 47.57 -38.375 24.14 -38.375 0 C-34.415 0 -30.455 0 -26.375 0 C-26.375 1.98 -26.375 3.96 -26.375 6 C-25.715 6 -25.055 6 -24.375 6 C-24.16875 5.401875 -23.9625 4.80375 -23.75 4.1875 C-19.03429132 -3.31476381 -7.4867229 -2.21828827 0 0 Z " fill="#FAFDFC" transform="translate(688.375,481)"/>
<path d="M0 0 C6.07794989 3.58206172 10.78946142 8.79025925 13.046875 15.5625 C14.96455441 25.09189154 14.5684438 35.58070746 9.5546875 44.0859375 C5.17662873 49.14035607 0.45091257 52.62943157 -6.3125 53.421875 C-12.97079887 53.50834641 -17.03308472 53.05490454 -22.4453125 49.0859375 C-22.7753125 48.7559375 -23.1053125 48.4259375 -23.4453125 48.0859375 C-23.7753125 55.6759375 -24.1053125 63.2659375 -24.4453125 71.0859375 C-28.7353125 71.0859375 -33.0253125 71.0859375 -37.4453125 71.0859375 C-37.4453125 47.6559375 -37.4453125 24.2259375 -37.4453125 0.0859375 C-33.4853125 0.0859375 -29.5253125 0.0859375 -25.4453125 0.0859375 C-25.4453125 2.0659375 -25.4453125 4.0459375 -25.4453125 6.0859375 C-24.7853125 6.0859375 -24.1253125 6.0859375 -23.4453125 6.0859375 C-23.2390625 5.4878125 -23.0328125 4.8896875 -22.8203125 4.2734375 C-18.37735677 -2.79490117 -7.11414684 -2.65928173 0 0 Z " fill="#FAFDFB" transform="translate(1007.4453125,480.9140625)"/>
<path d="M0 0 C3.5 1.8125 3.5 1.8125 6 4 C6.78375 4.5775 7.5675 5.155 8.375 5.75 C8.91125 6.1625 9.4475 6.575 10 7 C10.48210938 6.57847656 10.96421875 6.15695312 11.4609375 5.72265625 C12.09257813 5.17480469 12.72421875 4.62695312 13.375 4.0625 C14.00148438 3.51722656 14.62796875 2.97195313 15.2734375 2.41015625 C19.98680997 -1.43945339 26.21633442 -0.38745628 32 0 C36.79284104 1.59761368 39.25253005 3.78067116 42 8 C44.16594318 13.1290537 44.26391047 17.65391113 44.1953125 23.1171875 C44.1924826 23.97434357 44.18965271 24.83149963 44.18673706 25.71463013 C44.17559999 28.43489932 44.1505076 31.15483141 44.125 33.875 C44.11496182 35.72655772 44.10583744 37.57812064 44.09765625 39.4296875 C44.07568188 43.9532536 44.041197 48.47656977 44 53 C39.71 53 35.42 53 31 53 C30.97494385 51.86457764 30.9498877 50.72915527 30.92407227 49.55932617 C30.82994424 45.34924919 30.72973663 41.13933512 30.62768555 36.92944336 C30.58435713 35.10689096 30.54268053 33.28429852 30.50268555 31.46166992 C30.44493238 28.84281339 30.38125244 26.22415805 30.31640625 23.60546875 C30.29969376 22.78974899 30.28298126 21.97402924 30.26576233 21.1335907 C30.17986755 17.85820456 30.04247866 15.12743599 29 12 C27.08458862 11.89158049 25.16740227 11.81421921 23.25 11.75 C22.18265625 11.70359375 21.1153125 11.6571875 20.015625 11.609375 C16.90933864 11.75038023 16.90933864 11.75038023 14.671875 13.828125 C11.58711151 17.83543458 11.79471714 21.88841537 11.68359375 26.73046875 C11.66281265 27.48088943 11.64203156 28.23131012 11.62062073 29.00447083 C11.55530074 31.39872184 11.49632208 33.79308139 11.4375 36.1875 C11.39429807 37.81186013 11.35068324 39.43620933 11.30664062 41.06054688 C11.19963737 45.04025371 11.09832063 49.02006958 11 53 C7.04 53 3.08 53 -1 53 C-1.029729 51.39560059 -1.029729 51.39560059 -1.06005859 49.75878906 C-1.1362098 45.78524488 -1.22491242 41.81206234 -1.31738281 37.83886719 C-1.35563327 36.12018989 -1.39049303 34.40143362 -1.421875 32.68261719 C-1.46761128 30.2099996 -1.52559084 27.73792387 -1.5859375 25.265625 C-1.59748871 24.49881409 -1.60903992 23.73200317 -1.62094116 22.94195557 C-1.75461827 17.65790452 -1.75461827 17.65790452 -4 13 C-7.45087973 11.27456014 -11.21978695 11.64286757 -15 12 C-17.53958234 12.88329643 -17.53958234 12.88329643 -19 15 C-20.6661706 19.90400691 -21.28549018 24.30052227 -21.4140625 29.46484375 C-21.43342865 30.14301651 -21.4527948 30.82118927 -21.4727478 31.51991272 C-21.53191999 33.65898566 -21.57867519 35.79811428 -21.625 37.9375 C-21.66323745 39.39911036 -21.70229242 40.86069957 -21.7421875 42.32226562 C-21.83756819 45.88131543 -21.92182567 49.44052587 -22 53 C-25.96 53 -29.92 53 -34 53 C-34 35.84 -34 18.68 -34 1 C-30.04 1 -26.08 1 -22 1 C-21.67 2.65 -21.34 4.3 -21 6 C-20.071875 5.195625 -19.14375 4.39125 -18.1875 3.5625 C-12.91140409 -1.01011645 -6.68360537 -0.65508185 0 0 Z " fill="#FBFDFC" transform="translate(596,480)"/>
<path d="M0 0 C6.67935973 4.13829896 10.45678618 9.95480336 12.4375 17.4375 C12.4375 21.0675 12.4375 24.6975 12.4375 28.4375 C0.5575 28.4375 -11.3225 28.4375 -23.5625 28.4375 C-22.0940148 35.92086897 -22.0940148 35.92086897 -17.5625 40.4375 C-13.86524625 42.28612688 -9.59788558 41.91337094 -5.5625 41.4375 C-2.62826805 39.64103146 -1.09044645 38.4933929 0.4375 35.4375 C4.0675 35.4375 7.6975 35.4375 11.4375 35.4375 C11.19320451 40.44555746 9.62175467 43.26675803 6.28515625 46.82421875 C0.15408827 52.1775614 -6.44997727 53.1146982 -14.41796875 52.80859375 C-22.81185697 51.81801067 -27.45888657 48.11153071 -32.93359375 41.8515625 C-37.89650344 34.49645893 -37.5190005 25.28954398 -36.1328125 16.80859375 C-34.07052267 9.48873786 -29.27874554 4.70103795 -23.5625 -0.0625 C-16.93708342 -3.42779096 -6.69159721 -2.98409065 0 0 Z " fill="#FBFDFC" transform="translate(850.5625,481.5625)"/>
<path d="M0 0 C4.56305557 2.62721381 7.24191628 6.25413014 9.25 11.125 C9.76397775 14.35685516 9.71895808 17.51163774 9.640625 20.77734375 C9.63496521 21.67747696 9.62930542 22.57761017 9.62347412 23.50502014 C9.6012223 26.35807231 9.55104799 29.20983244 9.5 32.0625 C9.47992048 34.00584114 9.46167226 35.94920211 9.4453125 37.89257812 C9.40139435 42.63721068 9.33244565 47.38088687 9.25 52.125 C5.62 52.125 1.99 52.125 -1.75 52.125 C-2.41 50.475 -3.07 48.825 -3.75 47.125 C-4.678125 47.929375 -5.60625 48.73375 -6.5625 49.5625 C-10.97110129 53.38328778 -15.22441192 53.52515446 -20.88671875 53.47265625 C-25.29221089 52.93774656 -28.55428937 51.17750661 -31.75 48.125 C-35.67483473 42.76469331 -35.66396613 37.54887626 -34.75 31.125 C-32.79099664 26.64976565 -29.24179094 24.62850959 -24.82983398 22.81420898 C-20.91772368 21.51782591 -16.88317009 21.00398869 -12.8125 20.4375 C-11.93787109 20.30794922 -11.06324219 20.17839844 -10.16210938 20.04492188 C-8.02598014 19.72975527 -5.88814645 19.42617747 -3.75 19.125 C-3.32920979 14.30310878 -3.32920979 14.30310878 -5.3125 10.1875 C-8.67661599 8.72109047 -11.11166341 8.7420172 -14.75 9.125 C-18.2886994 10.77639305 -19.56070153 11.84105229 -21.75 15.125 C-24.3515625 15.41796875 -24.3515625 15.41796875 -27.375 15.3125 C-28.87933594 15.27189453 -28.87933594 15.27189453 -30.4140625 15.23046875 C-31.18492188 15.19566406 -31.95578125 15.16085937 -32.75 15.125 C-32.61183829 9.59853144 -30.21405713 6.83175549 -26.734375 2.859375 C-20.23190455 -2.82388658 -7.98478813 -2.54061441 0 0 Z " fill="#FAFDFC" transform="translate(1197.75,480.875)"/>
<path d="M0 0 C4.62 0 9.24 0 14 0 C17.96 11.22 21.92 22.44 26 34 C29.14885545 26.16952283 29.14885545 26.16952283 32.10546875 18.28125 C32.44900391 17.32992188 32.79253906 16.37859375 33.14648438 15.3984375 C33.49001953 14.44195312 33.83355469 13.48546875 34.1875 12.5 C34.88823029 10.55169001 35.59000003 8.60375346 36.29296875 6.65625 C36.5974292 5.80869141 36.90188965 4.96113281 37.21557617 4.08789062 C38 2 38 2 39 0 C43.62 0 48.24 0 53 0 C47.38082033 15.11444654 41.64110615 30.18156512 35.59283447 45.13018799 C34.99365543 46.61587571 34.39913785 48.1034527 33.80950928 49.59295654 C26.7463723 67.40079612 26.7463723 67.40079612 19.375 71.4375 C14.22313814 72.29614364 9.21972742 72.11599394 4 72 C4 68.04 4 64.08 4 60 C5.5675 60.0825 7.135 60.165 8.75 60.25 C12.91861033 60.25480029 12.91861033 60.25480029 16.5625 58.3125 C18.24006722 55.6138049 18.75713005 54.18372586 19 51 C18.25289985 48.07476529 17.11127849 45.33644722 15.95703125 42.55078125 C15.46972786 41.3317939 15.46972786 41.3317939 14.97257996 40.08818054 C13.93122132 37.49126336 12.87223224 34.90196622 11.8125 32.3125 C11.11795882 30.58966867 10.42458701 28.86636543 9.73242188 27.14257812 C7.38519748 21.30831362 5.02790911 15.47839097 2.61865234 9.66943359 C2.25336426 8.7820752 1.88807617 7.8947168 1.51171875 6.98046875 C1.21096436 6.26141357 0.91020996 5.5423584 0.6003418 4.80151367 C0 3 0 3 0 0 Z " fill="#FAFDFC" transform="translate(1213,481)"/>
<path d="M0 0 C3.16306796 1.95972689 5.39104784 4.08446037 7.3125 7.3125 C8.0625 10.625 8.0625 10.625 8.3125 13.3125 C6.37622231 13.42057131 4.43822244 13.4981225 2.5 13.5625 C0.88158203 13.63210938 0.88158203 13.63210938 -0.76953125 13.703125 C-3.6875 13.3125 -3.6875 13.3125 -5.33203125 11.35546875 C-6.00298828 10.34419922 -6.00298828 10.34419922 -6.6875 9.3125 C-11.28095034 8.20118137 -13.41672263 7.70358584 -17.6875 9.75 C-18.6775 10.5234375 -18.6775 10.5234375 -19.6875 11.3125 C-19.3575 12.9625 -19.0275 14.6125 -18.6875 16.3125 C-18.14335449 16.47331055 -17.59920898 16.63412109 -17.03857422 16.79980469 C-14.54332106 17.5436586 -12.05301205 18.30293034 -9.5625 19.0625 C-8.7065625 19.31515625 -7.850625 19.5678125 -6.96875 19.828125 C-0.94917482 21.68030198 3.99025331 23.6032122 8.1875 28.5 C10.0290398 33.10384949 10.21484001 37.56788247 8.65625 42.30859375 C6.24714937 47.13717906 3.1419314 49.07026399 -1.6875 51.3125 C-8.49580531 53.51779889 -17.71380469 53.69939879 -24.25 50.6875 C-27.96226551 48.41712303 -30.31987684 45.97155397 -32.6875 42.3125 C-33.5 38.4375 -33.5 38.4375 -33.6875 35.3125 C-29.98039621 35.02927475 -26.38444706 34.85656151 -22.6875 35.3125 C-20.8125 37.6875 -20.8125 37.6875 -19.6875 40.3125 C-15.75118673 42.85952623 -12.13781769 42.30682202 -7.67578125 41.796875 C-5.47066488 41.44209633 -5.47066488 41.44209633 -3.6875 39.3125 C-3.52062552 36.72895782 -3.52062552 36.72895782 -3.6875 34.3125 C-7.58118848 32.04118172 -11.1522827 30.91444687 -15.5625 29.9375 C-22.13303637 28.37036586 -27.22225976 26.16293403 -31.6875 21 C-33.54621992 16.00469021 -33.28465085 11.94680758 -31.5 7.0625 C-24.96811583 -2.84794495 -10.46100203 -4.8752217 0 0 Z " fill="#F9FDFC" transform="translate(521.6875,481.6875)"/>
<path d="M0 0 C4.45625285 3.33056058 7.42504005 7.18409947 8.52734375 12.65625 C8.64078125 13.56117188 8.75421875 14.46609375 8.87109375 15.3984375 C6.76867772 15.53340001 4.66379765 15.63041057 2.55859375 15.7109375 C1.38683594 15.76894531 0.21507812 15.82695312 -0.9921875 15.88671875 C-2.54486328 15.64501953 -2.54486328 15.64501953 -4.12890625 15.3984375 C-5.859375 13.00390625 -5.859375 13.00390625 -7.12890625 10.3984375 C-10.84278443 7.92251872 -13.82473186 7.85936282 -18.12890625 8.3984375 C-22.33345625 10.17369195 -24.14383111 12.32903347 -26.12890625 16.3984375 C-28.44449512 22.50317179 -27.33716556 28.71692728 -25.17578125 34.63671875 C-23.79142686 36.9663599 -22.47418947 38.03718919 -20.12890625 39.3984375 C-15.28833976 40.18858879 -10.64585088 40.47139834 -6.56640625 37.5859375 C-6.09203125 36.8640625 -5.61765625 36.1421875 -5.12890625 35.3984375 C-4.46890625 34.4084375 -3.80890625 33.4184375 -3.12890625 32.3984375 C-0.30859375 32.10546875 -0.30859375 32.10546875 2.99609375 32.2109375 C4.63964844 32.25154297 4.63964844 32.25154297 6.31640625 32.29296875 C7.58097656 32.34517578 7.58097656 32.34517578 8.87109375 32.3984375 C8.74541511 38.43101224 6.82877439 41.31910915 2.70703125 45.66796875 C-3.38453847 51.40959723 -9.93439094 51.77691068 -17.99609375 51.66796875 C-24.89030969 51.07482548 -30.23849636 48.76295107 -35.06640625 43.7734375 C-39.88706625 37.64528717 -41.71923187 30.42839084 -41.41796875 22.69140625 C-40.4088494 14.6866352 -37.75346252 7.82707181 -31.81640625 2.2109375 C-22.59394812 -4.00885984 -10.12291852 -5.39633842 0 0 Z " fill="#F9FDFB" transform="translate(1090.12890625,482.6015625)"/>
<path d="M0 0 C1 1 1 1 1.09765625 3.28515625 C1.08605469 4.20167969 1.07445312 5.11820312 1.0625 6.0625 C1.05347656 6.98160156 1.04445313 7.90070313 1.03515625 8.84765625 C1.02355469 9.55792969 1.01195312 10.26820313 1 11 C0.37351562 11.03738281 -0.25296875 11.07476562 -0.8984375 11.11328125 C-1.71570313 11.17902344 -2.53296875 11.24476563 -3.375 11.3125 C-4.59316406 11.39951172 -4.59316406 11.39951172 -5.8359375 11.48828125 C-8.37921338 11.82990528 -8.37921338 11.82990528 -10 15 C-10.45139459 17.0492094 -10.45139459 17.0492094 -10.625 19.1875 C-10.74875 20.445625 -10.8725 21.70375 -11 23 C-6.71 23 -2.42 23 2 23 C2 26.3 2 29.6 2 33 C-2.29 33 -6.58 33 -11 33 C-11 46.86 -11 60.72 -11 75 C-14.96 75 -18.92 75 -23 75 C-23 61.14 -23 47.28 -23 33 C-25.64 33 -28.28 33 -31 33 C-31 29.7 -31 26.4 -31 23 C-28.36 23 -25.72 23 -23 23 C-23.04640625 22.21496094 -23.0928125 21.42992187 -23.140625 20.62109375 C-23.37473244 13.80689517 -23.44529765 9.33435718 -19 4 C-13.31299377 -0.48269903 -7.01191026 -0.75171621 0 0 Z " fill="#FAFDFB" transform="translate(784,458)"/>
<path d="M0 0 C3.96 0 7.92 0 12 0 C12 24.42 12 48.84 12 74 C8.04 74 4.08 74 0 74 C0 49.58 0 25.16 0 0 Z " fill="#FEFEFE" transform="translate(710,459)"/>
<path d="M0 0 C3.79233703 2.90476879 5.52256877 5.52234658 7 10 C7.83829309 18.08898396 7.07176596 23.62864074 2.375 30.3125 C-1.19164815 32.84669737 -4.67722691 33.18592572 -9 33 C-13.64661161 31.24461339 -15.61168013 28.2595808 -18 24 C-18.38885986 21.16361043 -18.56348206 18.81437126 -18.5 16 C-18.51546875 15.31421875 -18.5309375 14.6284375 -18.546875 13.921875 C-18.5079307 8.82017166 -17.16104748 5.93518156 -14 2 C-9.70439106 -1.8046822 -5.28226661 -1.57221729 0 0 Z " fill="#029E58" transform="translate(681,491)"/>
<path d="M0 0 C3.45555392 2.81616868 5.5939275 5.78178249 7 10 C7.65668536 17.26660024 7.77411037 24.10256954 3 30 C-1.25219444 33.02378271 -4.84371964 33.73661148 -10 33 C-13.74363814 30.84119723 -16.49878097 28.07179957 -18 24 C-18.24422617 21.32487148 -18.37009454 18.79847611 -18.375 16.125 C-18.39949219 15.43019531 -18.42398437 14.73539062 -18.44921875 14.01953125 C-18.47847208 8.84169254 -17.22599594 5.989263 -14 2 C-9.76379143 -1.75207044 -5.19355449 -1.82550246 0 0 Z " fill="#029E58" transform="translate(1137,491)"/>
<path d="M0 0 C4.25441449 2.43109399 6.50971589 5.35902392 8 10 C8.75471817 16.64544048 8.32885718 22.17449993 5 28 C1.8266624 31.7683384 -0.38392896 32.81704856 -5.3125 33.375 C-10.25480563 32.87239265 -11.56012162 31.51987555 -15 28 C-17.50769876 24.31975949 -17.36710371 20.42847544 -17.375 16.125 C-17.39949219 15.43019531 -17.42398438 14.73539062 -17.44921875 14.01953125 C-17.47846901 8.84223584 -16.22976191 5.98655114 -13 2 C-8.92316189 -1.5106106 -5.00152267 -1.60518536 0 0 Z " fill="#029E58" transform="translate(1000,491)"/>
<path d="M0 0 C4.08792385 2.43535889 5.57078678 4.53760937 7 9 C8.3006924 21.93130239 8.3006924 21.93130239 5.25 26.6875 C4.5075 27.450625 3.765 28.21375 3 29 C2.443125 29.61875 1.88625 30.2375 1.3125 30.875 C-2.40713425 32.6845518 -5.95190213 32.63141908 -10 32 C-13.3987308 30.33153215 -15.3747575 29.19891861 -17.13671875 25.8203125 C-18.20924165 22.31641414 -18.33811369 19.22531069 -18.375 15.5625 C-18.40335938 14.28503906 -18.43171875 13.00757813 -18.4609375 11.69140625 C-17.81692054 6.53381281 -15.65852653 3.46898064 -11.8125 0.0625 C-7.68887417 -1.4953142 -4.22309967 -1.12667087 0 0 Z " fill="#029E58" transform="translate(900,491)"/>
<path d="M0 0 C4.29 0 8.58 0 13 0 C13 17.49 13 34.98 13 53 C8.71 53 4.42 53 0 53 C0 35.51 0 18.02 0 0 Z " fill="#F1FAF6" transform="translate(733,480)"/>
<path d="M0 0 C3.96 0 7.92 0 12 0 C12 17.16 12 34.32 12 52 C8.04 52 4.08 52 0 52 C0 34.84 0 17.68 0 0 Z " fill="#FEFEFE" transform="translate(1029,481)"/>
<path d="M0 0 C3.96 0 7.92 0 12 0 C12 17.16 12 34.32 12 52 C8.04 52 4.08 52 0 52 C0 34.84 0 17.68 0 0 Z " fill="#FBFDFC" transform="translate(793,481)"/>
<path d="M0 0 C3.96 0 7.92 0 12 0 C12 17.16 12 34.32 12 52 C8.04 52 4.08 52 0 52 C0 34.84 0 17.68 0 0 Z " fill="#FDFEFE" transform="translate(539,481)"/>
<path d="M0 0 C3.47520779 2.24636179 5.03178704 4.33966956 6.25 8.375 C6.43719954 12.9817365 5.87129939 16.3680665 3.4375 20.3125 C-0.09212346 23.64043069 -1.75767252 24.29624385 -6.6875 24.6875 C-11.73422478 24.53768999 -14.34901 22.62453162 -18.0625 19.3125 C-20.52687148 15.02266817 -20.65450566 11.20676101 -19.75 6.375 C-18.09569768 3.17755401 -15.77685008 1.12802339 -12.875 -1 C-8.24678083 -2.36124093 -4.28583834 -2.17463256 0 0 Z " fill="#FAFDFC" transform="translate(397.75,521.625)"/>
<path d="M0 0 C11.22 0 22.44 0 34 0 C34 3.96 34 7.92 34 12 C22.78 12 11.56 12 0 12 C0 8.04 0 4.08 0 0 Z " fill="#FCFEFC" transform="translate(928,498)"/>
<path d="M0 0 C0.42014232 6.09206361 0.06715472 9.11941433 -4 14 C-8.02130276 16.68086851 -11.27638228 16.68211086 -16 16 C-18.5625 14.375 -18.5625 14.375 -20 12 C-20.5625 9 -20.5625 9 -20 6 C-16.33263281 2.34616553 -13.39136384 1.37544731 -8.3125 0.75 C-7.17425781 0.60046875 -6.03601562 0.4509375 -4.86328125 0.296875 C-2 0 -2 0 0 0 Z " fill="#059C56" transform="translate(1195,508)"/>
<path d="M0 0 C2.9375 1.5625 2.9375 1.5625 5 4 C5.66 6.31 6.32 8.62 7 11 C-0.92 11 -8.84 11 -17 11 C-14.71014493 4.13043478 -14.71014493 4.13043478 -11 1 C-7.52915109 -0.73542446 -3.7949121 -0.45959143 0 0 Z " fill="#029A51" transform="translate(844,490)"/>
<path d="M0 0 C3.5 0.5625 3.5 0.5625 5.9375 2.1875 C7.99791771 5.31933492 8.1767545 6.87794773 7.5 10.5625 C5.375 13.5 5.375 13.5 2.5 15.5625 C-0.74291156 15.5625 -2.60399726 15.14953627 -5.3125 13.375 C-7.06489338 10.70029432 -7.43611062 8.75696895 -7.5 5.5625 C-5.45638108 1.64556373 -4.39720316 0.70669337 0 0 Z " fill="#F7FCFA" transform="translate(739.5,457.4375)"/>
<path d="M0 0 C2.5 2.125 2.5 2.125 4 5 C3.93550016 8.22499219 3.58491853 10.15186814 1.75 12.8125 C-0.58992192 14.40030416 -2.16582395 14.86503924 -5 15 C-9.59701493 12.80597015 -9.59701493 12.80597015 -11 10 C-11.38503376 6.45768939 -11.41935959 4.63742658 -9.4375 1.625 C-6.04129157 -0.63913895 -3.99900698 -0.64269755 0 0 Z " fill="#F8FDFB" transform="translate(1039,459)"/>
<path d="M0 0 C2.4375 1.625 2.4375 1.625 4 4 C4.60605429 7.63632575 4.47161336 9.28314769 2.4375 12.375 C-0.93510779 14.62340519 -3.02512383 14.56783945 -7 14 C-9.4375 12.375 -9.4375 12.375 -11 10 C-11.60605429 6.36367425 -11.47161336 4.71685231 -9.4375 1.625 C-6.06489221 -0.62340519 -3.97487617 -0.56783945 0 0 Z " fill="#F7FCFA" transform="translate(548,459)"/>
<path d="M0 0 C1.875 1.125 1.875 1.125 3 3 C3.50030235 6.93094707 3.5996142 9.1005787 1.375 12.4375 C-1.69817115 14.45932313 -3.38247881 14.52755517 -7 14 C-9.375 13 -9.375 13 -11 11 C-11.45352711 7.82531023 -11.69511624 6.01015553 -11 3 C-7.56705737 -1.13972494 -5.05326616 -1.64780418 0 0 Z " fill="#FAFDFC" transform="translate(804,459)"/>
<path d="M0 0 C0.66 0.33 1.32 0.66 2 1 C-0.1875 3.0625 -0.1875 3.0625 -3 5 C-5.8125 4.75 -5.8125 4.75 -8 4 C-6.66666667 3.33333333 -5.33333333 2.66666667 -4 2 C-3.29875 1.608125 -2.5975 1.21625 -1.875 0.8125 C-1.25625 0.544375 -0.6375 0.27625 0 0 Z " fill="#07944A" transform="translate(1041,471)"/>
</svg>
