<?xml version="1.0" encoding="UTF-8"?>
<!DOCTYPE svg PUBLIC "-//W3C//DTD SVG 1.1//EN" "http://www.w3.org/Graphics/SVG/1.1/DTD/svg11.dtd">
<svg xmlns="http://www.w3.org/2000/svg" version="1.1" width="604px" height="664px" style="shape-rendering:geometricPrecision; text-rendering:geometricPrecision; image-rendering:optimizeQuality; fill-rule:evenodd; clip-rule:evenodd" xmlns:xlink="http://www.w3.org/1999/xlink">
<g><path style="opacity:0.986" fill="#f4821f" d="M -0.5,-0.5 C 98.5,-0.5 197.5,-0.5 296.5,-0.5C 378.4,6.95754 448.4,39.4575 506.5,97C 392.919,169.732 278.919,241.899 164.5,313.5C 150.997,305.25 137.664,296.75 124.5,288C 227.634,223.031 330.634,157.864 433.5,92.5C 387.898,61.0218 337.232,44.1885 281.5,42C 201.501,41.5 121.501,41.3333 41.5,41.5C 41.8333,106.17 41.5,170.837 40.5,235.5C 26.8158,226.807 13.1491,218.14 -0.5,209.5C -0.5,139.5 -0.5,69.5 -0.5,-0.5 Z"/></g>
<g><path style="opacity:0.977" fill="#00abc5" d="M 603.5,308.5 C 603.5,323.833 603.5,339.167 603.5,354.5C 592.63,465.448 540.964,551.615 448.5,613C 422.091,629.859 393.758,642.359 363.5,650.5C 363.333,508.166 363.5,365.833 364,223.5C 377.683,213.915 391.849,205.248 406.5,197.5C 406.333,327.5 406.5,457.5 407,587.5C 505.198,530.836 556.698,445.502 561.5,331.5C 560.116,260.792 536.95,198.458 492,144.5C 491.333,143.833 491.333,143.167 492,142.5C 503.41,134.756 515.077,127.422 527,120.5C 528.605,121.101 529.938,122.101 531,123.5C 573.522,177.888 597.689,239.555 603.5,308.5 Z"/></g>
<g><path style="opacity:0.989" fill="#ec0f68" d="M -0.5,245.5 C 110.695,315.353 221.861,385.353 333,455.5C 333.667,472.5 333.667,489.5 333,506.5C 236,445.167 139,383.833 42,322.5C 41.5,422.166 41.3333,521.833 41.5,621.5C 121.167,621.667 200.834,621.5 280.5,621C 298.369,620.376 316.035,618.209 333.5,614.5C 333.5,629.167 333.5,643.833 333.5,658.5C 320.715,660.325 308.048,661.992 295.5,663.5C 196.833,663.5 98.1667,663.5 -0.5,663.5C -0.5,524.167 -0.5,384.833 -0.5,245.5 Z"/></g>
</svg>
