<?xml version="1.0" encoding="UTF-8"?>
<!DOCTYPE svg PUBLIC "-//W3C//DTD SVG 1.1//EN" "http://www.w3.org/Graphics/SVG/1.1/DTD/svg11.dtd">
<svg xmlns="http://www.w3.org/2000/svg" version="1.1" width="260px" height="260px" style="shape-rendering:geometricPrecision; text-rendering:geometricPrecision; image-rendering:optimizeQuality; fill-rule:evenodd; clip-rule:evenodd" xmlns:xlink="http://www.w3.org/1999/xlink">
<g><path style="opacity:0.478" fill="#1a7cc1" d="M 236.5,42.5 C 234.5,42.5 232.5,42.5 230.5,42.5C 232.011,40.5589 234.011,40.0589 236.5,41C 237.738,41.69 237.738,42.19 236.5,42.5 Z"/></g>
<g><path style="opacity:0.821" fill="#197bc0" d="M 121.5,48.5 C 114.5,48.5 107.5,48.5 100.5,48.5C 99.4019,47.603 99.4019,46.7697 100.5,46C 108.374,40.7615 115.374,41.5948 121.5,48.5 Z"/></g>
<g><path style="opacity:0.743" fill="#197bc0" d="M 139.5,48.5 C 136.167,48.5 132.833,48.5 129.5,48.5C 123.541,42.5888 124.541,41.0888 132.5,44C 135.239,45.0259 137.572,46.5259 139.5,48.5 Z"/></g>
<g><path style="opacity:0.79" fill="#197bc0" d="M 197.5,48.5 C 193.833,48.5 190.167,48.5 186.5,48.5C 191.634,44.0653 197.634,41.8986 204.5,42C 202.297,44.3722 199.963,46.5389 197.5,48.5 Z"/></g>
<g><path style="opacity:0.824" fill="#197bc0" d="M 219.5,48.5 C 214.833,48.5 210.167,48.5 205.5,48.5C 209.99,43.4995 215.657,41.3329 222.5,42C 221.207,44.0519 220.207,46.2186 219.5,48.5 Z"/></g>
<g><path style="opacity:0.815" fill="#197bc0" d="M 230.5,42.5 C 232.5,42.5 234.5,42.5 236.5,42.5C 236.008,44.8185 235.008,46.8185 233.5,48.5C 231.167,48.5 228.833,48.5 226.5,48.5C 227.351,46.1184 228.684,44.1184 230.5,42.5 Z"/></g>
<g><path style="opacity:0.725" fill="#197bc0" d="M 85.5,48.5 C 82.1667,48.5 78.8333,48.5 75.5,48.5C 79.4225,44.6091 84.0892,43.6091 89.5,45.5C 88.1482,46.5244 86.8149,47.5244 85.5,48.5 Z"/></g>
<g><path style="opacity:0.82" fill="#1679bd" d="M 75.5,48.5 C 78.8333,48.5 82.1667,48.5 85.5,48.5C 80.1667,53.1667 75.1667,58.1667 70.5,63.5C 67.5,63.5 64.5,63.5 61.5,63.5C 64.7831,57.2166 69.4497,52.2166 75.5,48.5 Z"/></g>
<g><path style="opacity:0.786" fill="#1678bd" d="M 102.5,63.5 C 101.167,63.5 99.8333,63.5 98.5,63.5C 97.7717,61.4885 96.9383,59.4885 96,57.5C 93.9633,59.7059 91.7966,61.7059 89.5,63.5C 85.8333,63.5 82.1667,63.5 78.5,63.5C 82.4577,57.708 87.2911,52.708 93,48.5C 97.1878,52.8807 100.354,57.8807 102.5,63.5 Z"/></g>
<g><path style="opacity:0.923" fill="#1679bd" d="M 100.5,48.5 C 107.5,48.5 114.5,48.5 121.5,48.5C 124.929,53.0203 127.595,58.0203 129.5,63.5C 122.833,63.5 116.167,63.5 109.5,63.5C 106.248,58.6657 103.248,53.6657 100.5,48.5 Z"/></g>
<g><path style="opacity:0.86" fill="#1679bd" d="M 129.5,48.5 C 132.833,48.5 136.167,48.5 139.5,48.5C 143.285,52.8129 145.951,57.8129 147.5,63.5C 144.167,63.5 140.833,63.5 137.5,63.5C 135.088,58.3413 132.421,53.3413 129.5,48.5 Z"/></g>
<g><path style="opacity:0.889" fill="#1679bd" d="M 186.5,48.5 C 190.167,48.5 193.833,48.5 197.5,48.5C 194.248,53.3343 191.248,58.3343 188.5,63.5C 184.5,63.5 180.5,63.5 176.5,63.5C 178.126,58.9144 180.293,54.5811 183,50.5C 183.816,49.1772 184.983,48.5106 186.5,48.5 Z"/></g>
<g><path style="opacity:0.897" fill="#1679bd" d="M 205.5,48.5 C 210.167,48.5 214.833,48.5 219.5,48.5C 217.072,53.6935 214.405,58.6935 211.5,63.5C 206.833,63.5 202.167,63.5 197.5,63.5C 199.407,58.0157 202.073,53.0157 205.5,48.5 Z"/></g>
<g><path style="opacity:0.811" fill="#1679bd" d="M 226.5,48.5 C 228.833,48.5 231.167,48.5 233.5,48.5C 231.1,53.6318 228.434,58.6318 225.5,63.5C 222.833,63.5 220.167,63.5 217.5,63.5C 220.263,58.2985 223.263,53.2985 226.5,48.5 Z"/></g>
<g><path style="opacity:0.345" fill="#1678bd" d="M 53.5,63.5 C 52.8333,63.5 52.1667,63.5 51.5,63.5C 54.7483,58.5806 58.7483,54.2472 63.5,50.5C 63.8333,50.6667 64.1667,50.8333 64.5,51C 60.9336,55.3327 57.267,59.4994 53.5,63.5 Z"/></g>
<g><path style="opacity:0.837" fill="#1476bb" d="M 61.5,63.5 C 64.5,63.5 67.5,63.5 70.5,63.5C 70.6716,64.4916 70.3382,65.1583 69.5,65.5C 66.1667,65.5 62.8333,65.5 59.5,65.5C 59.8333,64.5 60.5,63.8333 61.5,63.5 Z"/></g>
<g><path style="opacity:0.866" fill="#1476bb" d="M 78.5,63.5 C 82.1667,63.5 85.8333,63.5 89.5,63.5C 89.6716,64.4916 89.3382,65.1583 88.5,65.5C 84.8333,65.5 81.1667,65.5 77.5,65.5C 77.3284,64.5084 77.6618,63.8417 78.5,63.5 Z"/></g>
<g><path style="opacity:0.939" fill="#1476bb" d="M 109.5,63.5 C 116.167,63.5 122.833,63.5 129.5,63.5C 129.833,64.1667 130.167,64.8333 130.5,65.5C 123.833,65.5 117.167,65.5 110.5,65.5C 110.167,64.8333 109.833,64.1667 109.5,63.5 Z"/></g>
<g><path style="opacity:0.879" fill="#1476bb" d="M 137.5,63.5 C 140.833,63.5 144.167,63.5 147.5,63.5C 147.833,64.1667 148.167,64.8333 148.5,65.5C 145.167,65.5 141.833,65.5 138.5,65.5C 138.167,64.8333 137.833,64.1667 137.5,63.5 Z"/></g>
<g><path style="opacity:0.916" fill="#1476bb" d="M 176.5,63.5 C 180.5,63.5 184.5,63.5 188.5,63.5C 188.167,64.1667 187.833,64.8333 187.5,65.5C 183.833,65.5 180.167,65.5 176.5,65.5C 176.5,64.8333 176.5,64.1667 176.5,63.5 Z"/></g>
<g><path style="opacity:0.902" fill="#1476bb" d="M 197.5,63.5 C 202.167,63.5 206.833,63.5 211.5,63.5C 211.672,64.4916 211.338,65.1583 210.5,65.5C 205.833,65.5 201.167,65.5 196.5,65.5C 196.328,64.5084 196.662,63.8417 197.5,63.5 Z"/></g>
<g><path style="opacity:0.801" fill="#1476bb" d="M 217.5,63.5 C 220.167,63.5 222.833,63.5 225.5,63.5C 225.167,64.5 224.5,65.1667 223.5,65.5C 221.167,65.5 218.833,65.5 216.5,65.5C 216.833,64.8333 217.167,64.1667 217.5,63.5 Z"/></g>
<g><path style="opacity:0.589" fill="#1376ba" d="M 51.5,63.5 C 52.1667,63.5 52.8333,63.5 53.5,63.5C 52.8897,65.4341 51.8897,67.1007 50.5,68.5C 49.5,68.5 48.5,68.5 47.5,68.5C 48.1237,66.246 49.457,64.5794 51.5,63.5 Z"/></g>
<g><path style="opacity:0.855" fill="#1376ba" d="M 59.5,65.5 C 62.8333,65.5 66.1667,65.5 69.5,65.5C 69.0679,66.7095 68.4013,67.7095 67.5,68.5C 64.1667,68.5 60.8333,68.5 57.5,68.5C 58.1667,67.5 58.8333,66.5 59.5,65.5 Z"/></g>
<g><path style="opacity:0.863" fill="#1376ba" d="M 77.5,65.5 C 81.1667,65.5 84.8333,65.5 88.5,65.5C 87.8333,66.5 87.1667,67.5 86.5,68.5C 82.5,68.5 78.5,68.5 74.5,68.5C 75.1667,67.1667 76.1667,66.1667 77.5,65.5 Z"/></g>
<g><path style="opacity:0.725" fill="#1376ba" d="M 98.5,63.5 C 99.8333,63.5 101.167,63.5 102.5,63.5C 103.441,65.0495 104.107,66.7162 104.5,68.5C 102.833,68.5 101.167,68.5 99.5,68.5C 99.3713,66.7839 99.038,65.1172 98.5,63.5 Z"/></g>
<g><path style="opacity:0.931" fill="#1376ba" d="M 110.5,65.5 C 117.167,65.5 123.833,65.5 130.5,65.5C 131.11,66.391 131.443,67.391 131.5,68.5C 124.833,68.5 118.167,68.5 111.5,68.5C 111.443,67.391 111.11,66.391 110.5,65.5 Z"/></g>
<g><path style="opacity:0.87" fill="#1376ba" d="M 138.5,65.5 C 141.833,65.5 145.167,65.5 148.5,65.5C 148.557,66.609 148.89,67.609 149.5,68.5C 146.167,68.5 142.833,68.5 139.5,68.5C 138.89,67.609 138.557,66.609 138.5,65.5 Z"/></g>
<g><path style="opacity:0.875" fill="#1376ba" d="M 176.5,65.5 C 180.167,65.5 183.833,65.5 187.5,65.5C 187.443,66.609 187.11,67.609 186.5,68.5C 182.833,68.5 179.167,68.5 175.5,68.5C 175.263,67.209 175.596,66.209 176.5,65.5 Z"/></g>
<g><path style="opacity:0.92" fill="#1376ba" d="M 196.5,65.5 C 201.167,65.5 205.833,65.5 210.5,65.5C 210.443,66.609 210.11,67.609 209.5,68.5C 204.833,68.5 200.167,68.5 195.5,68.5C 195.263,67.209 195.596,66.209 196.5,65.5 Z"/></g>
<g><path style="opacity:0.789" fill="#1376ba" d="M 216.5,65.5 C 218.833,65.5 221.167,65.5 223.5,65.5C 223.573,67.0269 222.906,68.0269 221.5,68.5C 219.167,68.5 216.833,68.5 214.5,68.5C 214.932,67.2905 215.599,66.2905 216.5,65.5 Z"/></g>
<g><path style="opacity:0.653" fill="#1073b7" d="M 47.5,68.5 C 48.5,68.5 49.5,68.5 50.5,68.5C 48.7381,72.3617 46.7381,76.0283 44.5,79.5C 43.1667,79.5 41.8333,79.5 40.5,79.5C 42.0875,75.3171 44.4208,71.6505 47.5,68.5 Z"/></g>
<g><path style="opacity:0.86" fill="#1073b7" d="M 57.5,68.5 C 60.8333,68.5 64.1667,68.5 67.5,68.5C 66.0698,72.3544 64.4031,76.0211 62.5,79.5C 58.8333,79.5 55.1667,79.5 51.5,79.5C 53.246,75.6733 55.246,72.0066 57.5,68.5 Z"/></g>
<g><path style="opacity:0.88" fill="#1073b7" d="M 74.5,68.5 C 78.5,68.5 82.5,68.5 86.5,68.5C 84.4026,72.3723 82.0692,76.039 79.5,79.5C 75.8333,79.5 72.1667,79.5 68.5,79.5C 70.246,75.6733 72.246,72.0066 74.5,68.5 Z"/></g>
<g><path style="opacity:0.752" fill="#1073b7" d="M 99.5,68.5 C 101.167,68.5 102.833,68.5 104.5,68.5C 105.833,72.1667 107.167,75.8333 108.5,79.5C 106.5,79.5 104.5,79.5 102.5,79.5C 101.964,75.6861 100.964,72.0194 99.5,68.5 Z"/></g>
<g><path style="opacity:0.933" fill="#1073b7" d="M 111.5,68.5 C 118.167,68.5 124.833,68.5 131.5,68.5C 133.229,72.0205 134.562,75.6872 135.5,79.5C 129.167,79.5 122.833,79.5 116.5,79.5C 114.656,75.99 112.989,72.3233 111.5,68.5 Z"/></g>
<g><path style="opacity:0.877" fill="#1073b7" d="M 139.5,68.5 C 142.833,68.5 146.167,68.5 149.5,68.5C 150.344,72.2106 151.344,75.8772 152.5,79.5C 149.167,79.5 145.833,79.5 142.5,79.5C 141.703,75.7768 140.703,72.1101 139.5,68.5 Z"/></g>
<g><path style="opacity:0.883" fill="#1073b7" d="M 175.5,68.5 C 179.167,68.5 182.833,68.5 186.5,68.5C 185.168,72.1618 183.835,75.8285 182.5,79.5C 178.833,79.5 175.167,79.5 171.5,79.5C 172.833,75.8333 174.167,72.1667 175.5,68.5 Z"/></g>
<g><path style="opacity:0.91" fill="#1073b7" d="M 195.5,68.5 C 200.167,68.5 204.833,68.5 209.5,68.5C 207.64,72.0825 205.973,75.7492 204.5,79.5C 199.5,79.5 194.5,79.5 189.5,79.5C 191.262,75.6383 193.262,71.9717 195.5,68.5 Z"/></g>
<g><path style="opacity:0.801" fill="#1073b7" d="M 214.5,68.5 C 216.833,68.5 219.167,68.5 221.5,68.5C 219.554,72.4394 217.221,76.106 214.5,79.5C 212.5,79.5 210.5,79.5 208.5,79.5C 210.234,75.7004 212.234,72.0337 214.5,68.5 Z"/></g>
<g><path style="opacity:0.745" fill="#0e70b5" d="M 40.5,79.5 C 41.8333,79.5 43.1667,79.5 44.5,79.5C 44.6716,80.4916 44.3382,81.1583 43.5,81.5C 42.1667,81.5 40.8333,81.5 39.5,81.5C 39.3284,80.5084 39.6618,79.8417 40.5,79.5 Z"/></g>
<g><path style="opacity:0.867" fill="#0e70b5" d="M 51.5,79.5 C 55.1667,79.5 58.8333,79.5 62.5,79.5C 62.6716,80.4916 62.3382,81.1583 61.5,81.5C 57.8333,81.5 54.1667,81.5 50.5,81.5C 50.8333,80.8333 51.1667,80.1667 51.5,79.5 Z"/></g>
<g><path style="opacity:0.909" fill="#0e70b5" d="M 68.5,79.5 C 72.1667,79.5 75.8333,79.5 79.5,79.5C 79.6716,80.4916 79.3382,81.1583 78.5,81.5C 74.8333,81.5 71.1667,81.5 67.5,81.5C 67.8333,80.8333 68.1667,80.1667 68.5,79.5 Z"/></g>
<g><path style="opacity:0.78" fill="#0e70b5" d="M 102.5,79.5 C 104.5,79.5 106.5,79.5 108.5,79.5C 108.5,80.1667 108.5,80.8333 108.5,81.5C 106.833,81.5 105.167,81.5 103.5,81.5C 103.167,80.8333 102.833,80.1667 102.5,79.5 Z"/></g>
<g><path style="opacity:0.954" fill="#0e70b5" d="M 116.5,79.5 C 122.833,79.5 129.167,79.5 135.5,79.5C 136.338,79.8417 136.672,80.5084 136.5,81.5C 129.833,81.5 123.167,81.5 116.5,81.5C 116.5,80.8333 116.5,80.1667 116.5,79.5 Z"/></g>
<g><path style="opacity:0.903" fill="#0e70b5" d="M 142.5,79.5 C 145.833,79.5 149.167,79.5 152.5,79.5C 152.5,80.1667 152.5,80.8333 152.5,81.5C 149.5,81.5 146.5,81.5 143.5,81.5C 143.167,80.8333 142.833,80.1667 142.5,79.5 Z"/></g>
<g><path style="opacity:0.875" fill="#0e70b5" d="M 171.5,79.5 C 175.167,79.5 178.833,79.5 182.5,79.5C 182.167,80.1667 181.833,80.8333 181.5,81.5C 178.167,81.5 174.833,81.5 171.5,81.5C 171.5,80.8333 171.5,80.1667 171.5,79.5 Z"/></g>
<g><path style="opacity:0.888" fill="#0e70b5" d="M 189.5,79.5 C 194.5,79.5 199.5,79.5 204.5,79.5C 204.167,80.1667 203.833,80.8333 203.5,81.5C 198.5,81.5 193.5,81.5 188.5,81.5C 188.833,80.8333 189.167,80.1667 189.5,79.5 Z"/></g>
<g><path style="opacity:0.805" fill="#0e70b5" d="M 208.5,79.5 C 210.5,79.5 212.5,79.5 214.5,79.5C 214.167,80.1667 213.833,80.8333 213.5,81.5C 211.5,81.5 209.5,81.5 207.5,81.5C 207.328,80.5084 207.662,79.8417 208.5,79.5 Z"/></g>
<g><path style="opacity:0.746" fill="#0d70b4" d="M 39.5,81.5 C 40.8333,81.5 42.1667,81.5 43.5,81.5C 43.4431,82.609 43.1098,83.609 42.5,84.5C 40.8333,84.5 39.1667,84.5 37.5,84.5C 37.427,82.9731 38.0937,81.9731 39.5,81.5 Z"/></g>
<g><path style="opacity:0.869" fill="#0d70b4" d="M 50.5,81.5 C 54.1667,81.5 57.8333,81.5 61.5,81.5C 61.7373,82.791 61.404,83.791 60.5,84.5C 56.8333,84.5 53.1667,84.5 49.5,84.5C 49.5569,83.391 49.8902,82.391 50.5,81.5 Z"/></g>
<g><path style="opacity:0.904" fill="#0d70b4" d="M 67.5,81.5 C 71.1667,81.5 74.8333,81.5 78.5,81.5C 78.7373,82.791 78.404,83.791 77.5,84.5C 73.8333,84.5 70.1667,84.5 66.5,84.5C 66.5569,83.391 66.8902,82.391 67.5,81.5 Z"/></g>
<g><path style="opacity:0.783" fill="#0d70b4" d="M 103.5,81.5 C 105.167,81.5 106.833,81.5 108.5,81.5C 109.404,82.209 109.737,83.209 109.5,84.5C 107.833,84.5 106.167,84.5 104.5,84.5C 103.89,83.609 103.557,82.609 103.5,81.5 Z"/></g>
<g><path style="opacity:0.944" fill="#0d70b4" d="M 116.5,81.5 C 123.167,81.5 129.833,81.5 136.5,81.5C 137.404,82.209 137.737,83.209 137.5,84.5C 130.833,84.5 124.167,84.5 117.5,84.5C 117.443,83.391 117.11,82.391 116.5,81.5 Z"/></g>
<g><path style="opacity:0.882" fill="#0d70b4" d="M 143.5,81.5 C 146.5,81.5 149.5,81.5 152.5,81.5C 153.404,82.209 153.737,83.209 153.5,84.5C 150.5,84.5 147.5,84.5 144.5,84.5C 143.89,83.609 143.557,82.609 143.5,81.5 Z"/></g>
<g><path style="opacity:0.901" fill="#0d70b4" d="M 171.5,81.5 C 174.833,81.5 178.167,81.5 181.5,81.5C 180.89,82.391 180.557,83.391 180.5,84.5C 177.167,84.5 173.833,84.5 170.5,84.5C 170.557,83.391 170.89,82.391 171.5,81.5 Z"/></g>
<g><path style="opacity:0.886" fill="#0d70b4" d="M 188.5,81.5 C 193.5,81.5 198.5,81.5 203.5,81.5C 203.068,82.7095 202.401,83.7095 201.5,84.5C 196.833,84.5 192.167,84.5 187.5,84.5C 187.557,83.391 187.89,82.391 188.5,81.5 Z"/></g>
<g><path style="opacity:0.795" fill="#0d70b4" d="M 207.5,81.5 C 209.5,81.5 211.5,81.5 213.5,81.5C 212.833,82.5 212.167,83.5 211.5,84.5C 209.5,84.5 207.5,84.5 205.5,84.5C 205.932,83.2905 206.599,82.2905 207.5,81.5 Z"/></g>
<g><path style="opacity:0.776" fill="#0a6cb1" d="M 37.5,84.5 C 39.1667,84.5 40.8333,84.5 42.5,84.5C 41.0082,88.9871 39.3415,93.3205 37.5,97.5C 35.5,97.5 33.5,97.5 31.5,97.5C 32.743,92.7497 34.743,88.4164 37.5,84.5 Z"/></g>
<g><path style="opacity:0.894" fill="#0a6cb1" d="M 49.5,84.5 C 53.1667,84.5 56.8333,84.5 60.5,84.5C 59.161,88.849 57.8277,93.1823 56.5,97.5C 52.5,97.5 48.5,97.5 44.5,97.5C 45.8919,93.0515 47.5586,88.7181 49.5,84.5 Z"/></g>
<g><path style="opacity:0.89" fill="#0a6cb1" d="M 66.5,84.5 C 70.1667,84.5 73.8333,84.5 77.5,84.5C 76.0082,88.9871 74.3415,93.3205 72.5,97.5C 68.1667,97.5 63.8333,97.5 59.5,97.5C 61.5951,92.9726 63.9284,88.6392 66.5,84.5 Z"/></g>
<g><path style="opacity:0.789" fill="#0a6cb1" d="M 104.5,84.5 C 106.167,84.5 107.833,84.5 109.5,84.5C 111.343,88.6844 113.01,93.0178 114.5,97.5C 112.167,97.5 109.833,97.5 107.5,97.5C 106.344,93.2075 105.344,88.8741 104.5,84.5 Z"/></g>
<g><path style="opacity:0.933" fill="#0a6cb1" d="M 117.5,84.5 C 124.167,84.5 130.833,84.5 137.5,84.5C 139.964,88.4436 141.63,92.7769 142.5,97.5C 136.167,97.5 129.833,97.5 123.5,97.5C 121.226,93.2864 119.226,88.9531 117.5,84.5 Z"/></g>
<g><path style="opacity:0.861" fill="#0a6cb1" d="M 144.5,84.5 C 147.5,84.5 150.5,84.5 153.5,84.5C 154.943,88.6151 155.943,92.9484 156.5,97.5C 153.833,97.5 151.167,97.5 148.5,97.5C 146.768,93.3027 145.435,88.9693 144.5,84.5 Z"/></g>
<g><path style="opacity:0.862" fill="#0a6cb1" d="M 170.5,84.5 C 173.833,84.5 177.167,84.5 180.5,84.5C 178.739,89.0175 176.739,93.3509 174.5,97.5C 171.833,97.5 169.167,97.5 166.5,97.5C 167.435,93.0307 168.768,88.6973 170.5,84.5 Z"/></g>
<g><path style="opacity:0.912" fill="#0a6cb1" d="M 187.5,84.5 C 192.167,84.5 196.833,84.5 201.5,84.5C 199.771,88.9576 197.771,93.2909 195.5,97.5C 190.833,97.5 186.167,97.5 181.5,97.5C 183.229,93.0424 185.229,88.7091 187.5,84.5 Z"/></g>
<g><path style="opacity:0.739" fill="#0a6cb1" d="M 205.5,84.5 C 207.5,84.5 209.5,84.5 211.5,84.5C 208.734,89.0449 205.734,93.3782 202.5,97.5C 200.833,97.5 199.167,97.5 197.5,97.5C 199.93,92.9634 202.597,88.6301 205.5,84.5 Z"/></g>
<g><path style="opacity:0.848" fill="#0769ae" d="M 31.5,97.5 C 33.5,97.5 35.5,97.5 37.5,97.5C 37.5674,98.9587 37.2341,100.292 36.5,101.5C 34.1667,101.5 31.8333,101.5 29.5,101.5C 29.9887,100.005 30.6554,98.6715 31.5,97.5 Z"/></g>
<g><path style="opacity:0.9" fill="#0769ae" d="M 44.5,97.5 C 48.5,97.5 52.5,97.5 56.5,97.5C 56.5674,98.9587 56.2341,100.292 55.5,101.5C 51.5,101.5 47.5,101.5 43.5,101.5C 43.8333,100.167 44.1667,98.8333 44.5,97.5 Z"/></g>
<g><path style="opacity:0.917" fill="#0769ae" d="M 59.5,97.5 C 63.8333,97.5 68.1667,97.5 72.5,97.5C 72.5674,98.9587 72.2341,100.292 71.5,101.5C 67.1667,101.5 62.8333,101.5 58.5,101.5C 58.8333,100.167 59.1667,98.8333 59.5,97.5 Z"/></g>
<g><path style="opacity:0.841" fill="#0769ae" d="M 107.5,97.5 C 109.833,97.5 112.167,97.5 114.5,97.5C 114.833,98.8333 115.167,100.167 115.5,101.5C 113.5,101.5 111.5,101.5 109.5,101.5C 108.655,100.329 107.989,98.9952 107.5,97.5 Z"/></g>
<g><path style="opacity:0.926" fill="#0769ae" d="M 123.5,97.5 C 129.833,97.5 136.167,97.5 142.5,97.5C 143.674,98.5137 144.34,99.847 144.5,101.5C 138.167,101.5 131.833,101.5 125.5,101.5C 124.655,100.329 123.989,98.9952 123.5,97.5 Z"/></g>
<g><path style="opacity:0.81" fill="#0769ae" d="M 148.5,97.5 C 151.167,97.5 153.833,97.5 156.5,97.5C 156.833,98.8333 157.167,100.167 157.5,101.5C 155.167,101.5 152.833,101.5 150.5,101.5C 149.326,100.486 148.66,99.153 148.5,97.5 Z"/></g>
<g><path style="opacity:0.833" fill="#0769ae" d="M 166.5,97.5 C 169.167,97.5 171.833,97.5 174.5,97.5C 174.567,98.9587 174.234,100.292 173.5,101.5C 170.833,101.5 168.167,101.5 165.5,101.5C 165.433,100.041 165.766,98.7079 166.5,97.5 Z"/></g>
<g><path style="opacity:0.932" fill="#0769ae" d="M 181.5,97.5 C 186.167,97.5 190.833,97.5 195.5,97.5C 194.89,98.391 194.557,99.391 194.5,100.5C 193.833,100.5 193.5,100.833 193.5,101.5C 188.833,101.5 184.167,101.5 179.5,101.5C 179.989,100.005 180.655,98.6715 181.5,97.5 Z"/></g>
<g><path style="opacity:0.655" fill="#0769ae" d="M 197.5,97.5 C 199.167,97.5 200.833,97.5 202.5,97.5C 201.974,99.2303 200.974,100.564 199.5,101.5C 197.833,101.5 196.167,101.5 194.5,101.5C 194.5,101.167 194.5,100.833 194.5,100.5C 195.833,99.8333 196.833,98.8333 197.5,97.5 Z"/></g>
<g><path style="opacity:0.852" fill="#0366aa" d="M 29.5,101.5 C 31.8333,101.5 34.1667,101.5 36.5,101.5C 35.4027,107.34 34.0694,113.006 32.5,118.5C 29.5,118.5 26.5,118.5 23.5,118.5C 25.2147,112.736 27.2147,107.07 29.5,101.5 Z"/></g>
<g><path style="opacity:0.928" fill="#0366aa" d="M 43.5,101.5 C 47.5,101.5 51.5,101.5 55.5,101.5C 55.3433,102.873 55.51,104.207 56,105.5C 56.6082,103.934 57.4415,102.6 58.5,101.5C 62.8333,101.5 67.1667,101.5 71.5,101.5C 69.9409,108.296 66.6075,113.962 61.5,118.5C 54.1667,118.5 46.8333,118.5 39.5,118.5C 40.578,112.777 41.9113,107.111 43.5,101.5 Z"/></g>
<g><path style="opacity:0.815" fill="#0366aa" d="M 109.5,101.5 C 111.5,101.5 113.5,101.5 115.5,101.5C 118.736,106.969 121.736,112.636 124.5,118.5C 122.167,118.5 119.833,118.5 117.5,118.5C 112.977,113.784 110.31,108.117 109.5,101.5 Z"/></g>
<g><path style="opacity:0.922" fill="#0366aa" d="M 125.5,101.5 C 131.833,101.5 138.167,101.5 144.5,101.5C 147.175,106.859 148.842,112.526 149.5,118.5C 144.833,118.5 140.167,118.5 135.5,118.5C 131.414,113.335 128.08,107.668 125.5,101.5 Z"/></g>
<g><path style="opacity:0.758" fill="#0568ac" d="M 150.5,101.5 C 152.833,101.5 155.167,101.5 157.5,101.5C 157.167,104.167 156.833,106.833 156.5,109.5C 153.1,108.092 151.1,105.425 150.5,101.5 Z"/></g>
<g><path style="opacity:0.785" fill="#0467ab" d="M 165.5,101.5 C 168.167,101.5 170.833,101.5 173.5,101.5C 172.173,104.471 170.84,107.471 169.5,110.5C 168.311,111.429 166.978,111.762 165.5,111.5C 165.5,108.167 165.5,104.833 165.5,101.5 Z"/></g>
<g><path style="opacity:0.919" fill="#0366aa" d="M 179.5,101.5 C 184.167,101.5 188.833,101.5 193.5,101.5C 193.833,101.5 194.167,101.5 194.5,101.5C 196.167,101.5 197.833,101.5 199.5,101.5C 196.31,108.026 191.976,113.692 186.5,118.5C 181.833,118.5 177.167,118.5 172.5,118.5C 174.001,112.497 176.334,106.831 179.5,101.5 Z"/></g>
<g><path style="opacity:0.718" fill="#0265a9" d="M 158.5,108.5 C 160.488,110.601 162.155,113.101 163.5,116C 160.694,120.572 157.694,120.572 154.5,116C 156.494,113.842 157.828,111.342 158.5,108.5 Z"/></g>
<g><path style="opacity:0.903" fill="#0163a8" d="M 23.5,118.5 C 26.5,118.5 29.5,118.5 32.5,118.5C 32.5,119.5 32.5,120.5 32.5,121.5C 29.1667,121.5 25.8333,121.5 22.5,121.5C 23.1098,120.609 23.4431,119.609 23.5,118.5 Z"/></g>
<g><path style="opacity:0.905" fill="#0163a8" d="M 39.5,118.5 C 46.8333,118.5 54.1667,118.5 61.5,118.5C 60.7377,120.262 59.4044,121.262 57.5,121.5C 51.5,121.5 45.5,121.5 39.5,121.5C 39.5,120.5 39.5,119.5 39.5,118.5 Z"/></g>
<g><path style="opacity:0.714" fill="#0163a8" d="M 117.5,118.5 C 119.833,118.5 122.167,118.5 124.5,118.5C 125.401,119.29 126.068,120.29 126.5,121.5C 125.167,121.5 123.833,121.5 122.5,121.5C 120.566,120.89 118.899,119.89 117.5,118.5 Z"/></g>
<g><path style="opacity:0.73" fill="#0163a8" d="M 135.5,118.5 C 140.167,118.5 144.833,118.5 149.5,118.5C 144.801,122.413 140.135,122.413 135.5,118.5 Z"/></g>
<g><path style="opacity:0.534" fill="#0163a8" d="M 154.5,121.5 C 152.833,121.5 151.167,121.5 149.5,121.5C 150.406,120.035 151.739,119.035 153.5,118.5C 154.386,119.325 154.719,120.325 154.5,121.5 Z"/></g>
<g><path style="opacity:0.843" fill="#0163a8" d="M 172.5,118.5 C 177.167,118.5 181.833,118.5 186.5,118.5C 182.91,122.352 178.577,123.352 173.5,121.5C 172.614,120.675 172.281,119.675 172.5,118.5 Z"/></g>
<g><path style="opacity:0.552" fill="#0163a8" d="M 167.5,121.5 C 165.833,121.5 164.167,121.5 162.5,121.5C 163.916,119.149 165.583,119.149 167.5,121.5 Z"/></g>
<g><path style="opacity:0.761" fill="#0063a7" d="M 22.5,121.5 C 25.8333,121.5 29.1667,121.5 32.5,121.5C 30.0016,126.668 26.335,127.668 21.5,124.5C 22.1272,123.583 22.4606,122.583 22.5,121.5 Z"/></g>
<g><path style="opacity:0.836" fill="#0063a7" d="M 39.5,121.5 C 45.5,121.5 51.5,121.5 57.5,121.5C 52.1267,125.035 46.1267,126.368 39.5,125.5C 39.5,124.167 39.5,122.833 39.5,121.5 Z"/></g>
<g><path style="opacity:0.392" fill="#0162a8" d="M 122.5,121.5 C 123.833,121.5 125.167,121.5 126.5,121.5C 127.885,122.302 127.718,122.969 126,123.5C 124.541,123.192 123.374,122.525 122.5,121.5 Z"/></g>
<g><path style="opacity:0.629" fill="#0063a7" d="M 149.5,121.5 C 151.167,121.5 152.833,121.5 154.5,121.5C 154.5,122.5 154.5,123.5 154.5,124.5C 151.432,124.453 148.432,123.953 145.5,123C 146.745,122.209 148.078,121.709 149.5,121.5 Z"/></g>
<g><path style="opacity:0.611" fill="#0063a7" d="M 162.5,121.5 C 164.167,121.5 165.833,121.5 167.5,121.5C 169.196,121.685 170.529,122.519 171.5,124C 168.518,124.498 165.518,124.665 162.5,124.5C 162.5,123.5 162.5,122.5 162.5,121.5 Z"/></g>
<g><path style="opacity:0.807" fill="#000000" d="M 140.5,145.5 C 142.199,145.34 143.866,145.506 145.5,146C 146.833,147.333 146.833,148.667 145.5,150C 143.866,150.494 142.199,150.66 140.5,150.5C 140.5,148.833 140.5,147.167 140.5,145.5 Z"/></g>
<g><path style="opacity:0.976" fill="#000000" d="M 73.5,146.5 C 79.1667,146.5 84.8333,146.5 90.5,146.5C 90.5,147.833 90.5,149.167 90.5,150.5C 86.5,150.5 82.5,150.5 78.5,150.5C 78.5,153.167 78.5,155.833 78.5,158.5C 82.5,158.5 86.5,158.5 90.5,158.5C 90.5,159.833 90.5,161.167 90.5,162.5C 86.5,162.5 82.5,162.5 78.5,162.5C 78.5,165.833 78.5,169.167 78.5,172.5C 82.5,172.5 86.5,172.5 90.5,172.5C 90.5,173.833 90.5,175.167 90.5,176.5C 84.8333,176.5 79.1667,176.5 73.5,176.5C 73.5,166.5 73.5,156.5 73.5,146.5 Z"/></g>
<g><path style="opacity:0.843" fill="#000000" d="M 125.5,148.5 C 126.833,148.5 128.167,148.5 129.5,148.5C 129.5,150.167 129.5,151.833 129.5,153.5C 131.833,153.5 134.167,153.5 136.5,153.5C 136.5,154.833 136.5,156.167 136.5,157.5C 134.167,157.5 131.833,157.5 129.5,157.5C 129.334,161.846 129.501,166.179 130,170.5C 131.523,172.62 133.356,172.953 135.5,171.5C 136.452,173.045 136.785,174.712 136.5,176.5C 132.416,176.957 128.583,176.29 125,174.5C 123.711,168.912 123.211,163.245 123.5,157.5C 122.5,157.5 121.5,157.5 120.5,157.5C 122.878,155.058 124.545,152.058 125.5,148.5 Z"/></g>
<g><path style="opacity:0.843" fill="#000000" d="M 154.5,148.5 C 155.833,148.5 157.167,148.5 158.5,148.5C 158.5,150.167 158.5,151.833 158.5,153.5C 160.833,153.5 163.167,153.5 165.5,153.5C 165.5,154.833 165.5,156.167 165.5,157.5C 163.167,157.5 160.833,157.5 158.5,157.5C 158.334,161.846 158.501,166.179 159,170.5C 160.523,172.62 162.356,172.953 164.5,171.5C 165.452,173.045 165.785,174.712 165.5,176.5C 161.416,176.957 157.583,176.29 154,174.5C 152.711,168.912 152.211,163.245 152.5,157.5C 151.5,157.5 150.5,157.5 149.5,157.5C 151.878,155.058 153.545,152.058 154.5,148.5 Z"/></g>
<g><path style="opacity:0.83" fill="#000000" d="M 96.5,153.5 C 98.7659,153.141 100.599,153.808 102,155.5C 106.99,152.538 111.656,152.872 116,156.5C 117.42,163.05 117.92,169.716 117.5,176.5C 115.5,176.5 113.5,176.5 111.5,176.5C 111.666,170.824 111.499,165.157 111,159.5C 108.085,156.93 105.419,157.263 103,160.5C 102.501,165.823 102.334,171.156 102.5,176.5C 100.5,176.5 98.5,176.5 96.5,176.5C 96.5,168.833 96.5,161.167 96.5,153.5 Z"/></g>
<g><path style="opacity:0.789" fill="#000000" d="M 140.5,153.5 C 142.5,153.5 144.5,153.5 146.5,153.5C 146.5,161.167 146.5,168.833 146.5,176.5C 144.5,176.5 142.5,176.5 140.5,176.5C 140.5,168.833 140.5,161.167 140.5,153.5 Z"/></g>
<g><path style="opacity:0.832" fill="#000000" d="M 166.5,153.5 C 168.604,153.201 170.604,153.534 172.5,154.5C 174.235,159.538 176.068,164.538 178,169.5C 179.667,164.5 181.333,159.5 183,154.5C 185.064,153.409 187.231,153.242 189.5,154C 185.815,163.874 181.981,173.707 178,183.5C 174.673,186.154 170.839,187.154 166.5,186.5C 166.5,185.167 166.5,183.833 166.5,182.5C 171.196,183.131 173.863,181.131 174.5,176.5C 171.829,168.821 169.163,161.154 166.5,153.5 Z"/></g>
<g><path style="opacity:0.823" fill="#000000" d="M 225.5,182.5 C 227.5,182.5 229.5,182.5 231.5,182.5C 231.334,188.176 231.501,193.843 232,199.5C 234.5,197 237,194.5 239.5,192C 241.833,191.333 244.167,191.333 246.5,192C 243.317,195.015 240.317,198.182 237.5,201.5C 240.623,205.578 243.623,209.745 246.5,214C 244.167,214.667 241.833,214.667 239.5,214C 237.697,210.897 235.53,208.063 233,205.5C 231.608,208.278 231.108,211.278 231.5,214.5C 229.5,214.5 227.5,214.5 225.5,214.5C 225.5,203.833 225.5,193.167 225.5,182.5 Z"/></g>
<g><path style="opacity:0.972" fill="#000000" d="M 16.5,184.5 C 22.1667,184.5 27.8333,184.5 33.5,184.5C 33.5,185.833 33.5,187.167 33.5,188.5C 29.5,188.5 25.5,188.5 21.5,188.5C 21.5,191.833 21.5,195.167 21.5,198.5C 25.5,198.5 29.5,198.5 33.5,198.5C 33.5,199.833 33.5,201.167 33.5,202.5C 29.5,202.5 25.5,202.5 21.5,202.5C 21.5,206.5 21.5,210.5 21.5,214.5C 19.8333,214.5 18.1667,214.5 16.5,214.5C 16.5,204.5 16.5,194.5 16.5,184.5 Z"/></g>
<g><path style="opacity:0.803" fill="#000000" d="M 37.5,191.5 C 39.1667,191.5 40.8333,191.5 42.5,191.5C 42.443,195.133 43.443,195.3 45.5,192C 47.8098,191.503 50.1432,191.337 52.5,191.5C 52.4663,195.309 50.4663,197.143 46.5,197C 45.6667,197.833 44.8333,198.667 44,199.5C 43.5007,204.489 43.3341,209.489 43.5,214.5C 41.5,214.5 39.5,214.5 37.5,214.5C 37.5,206.833 37.5,199.167 37.5,191.5 Z"/></g>
<g><path style="opacity:0.839" fill="#000000" d="M 60.5,191.5 C 63.8499,191.335 67.1832,191.502 70.5,192C 71.9308,192.465 73.0975,193.299 74,194.5C 75.2736,201.103 75.7736,207.77 75.5,214.5C 73.1789,214.771 71.1789,214.104 69.5,212.5C 65.0329,215.136 60.5329,215.136 56,212.5C 53.9486,208.648 54.4486,205.148 57.5,202C 61.3951,200.734 65.3951,200.234 69.5,200.5C 69.7035,198.61 69.0368,197.11 67.5,196C 64.6956,195.54 62.0289,196.04 59.5,197.5C 58.0499,196.15 57.3832,194.484 57.5,192.5C 58.791,192.737 59.791,192.404 60.5,191.5 Z M 65.5,203.5 C 66.8333,203.5 68.1667,203.5 69.5,203.5C 69.7595,207.413 67.9261,209.747 64,210.5C 62.3783,210.046 61.2116,209.046 60.5,207.5C 61.707,205.459 63.3737,204.126 65.5,203.5 Z"/></g>
<g><path style="opacity:0.86" fill="#000000" d="M 81.5,191.5 C 83.7659,191.141 85.5993,191.808 87,193.5C 91.4668,190.867 95.9668,190.867 100.5,193.5C 105.687,190.506 110.52,190.839 115,194.5C 115.5,201.158 115.666,207.825 115.5,214.5C 113.833,214.5 112.167,214.5 110.5,214.5C 110.666,209.489 110.499,204.489 110,199.5C 107.402,194.197 104.735,194.197 102,199.5C 101.501,204.489 101.334,209.489 101.5,214.5C 99.5,214.5 97.5,214.5 95.5,214.5C 95.6661,208.824 95.4994,203.157 95,197.5C 92.3212,194.828 89.9879,195.162 88,198.5C 87.5006,203.823 87.334,209.156 87.5,214.5C 85.5,214.5 83.5,214.5 81.5,214.5C 81.5,206.833 81.5,199.167 81.5,191.5 Z"/></g>
<g><path style="opacity:0.876" fill="#000000" d="M 126.5,191.5 C 136.774,189.775 141.774,194.109 141.5,204.5C 136.5,204.5 131.5,204.5 126.5,204.5C 126.78,208.113 128.78,210.113 132.5,210.5C 134.765,210.06 136.932,209.394 139,208.5C 139.735,213.67 137.401,215.67 132,214.5C 127.869,215.1 124.536,213.766 122,210.5C 120.466,206.289 120.133,201.956 121,197.5C 122.36,194.977 124.193,192.977 126.5,191.5 Z M 129.5,195.5 C 132.504,195.335 134.504,196.668 135.5,199.5C 132.572,200.484 129.572,200.817 126.5,200.5C 126.31,198.041 127.31,196.374 129.5,195.5 Z"/></g>
<g><path style="opacity:0.829" fill="#000000" d="M 143.5,191.5 C 145.5,191.5 147.5,191.5 149.5,191.5C 150.505,196.522 151.672,201.522 153,206.5C 154.488,202.213 155.822,197.88 157,193.5C 159.025,191.275 161.358,190.941 164,192.5C 165.538,197.448 166.872,202.448 168,207.5C 169.487,202.221 170.653,196.888 171.5,191.5C 173.5,191.5 175.5,191.5 177.5,191.5C 175.815,198.908 173.815,206.241 171.5,213.5C 169.257,214.474 166.924,214.808 164.5,214.5C 163.496,209.484 162.33,204.484 161,199.5C 158.805,204.255 157.305,209.255 156.5,214.5C 154.167,214.5 151.833,214.5 149.5,214.5C 147.656,206.791 145.656,199.124 143.5,191.5 Z"/></g>
<g><path style="opacity:0.832" fill="#000000" d="M 186.5,191.5 C 198.936,189.769 204.103,195.103 202,207.5C 198.903,214.132 193.736,216.299 186.5,214C 184.714,213.215 183.214,212.049 182,210.5C 180.466,206.289 180.133,201.956 181,197.5C 182.36,194.977 184.193,192.977 186.5,191.5 Z M 189.5,195.5 C 194.396,195.563 196.729,198.063 196.5,203C 196.724,207.063 194.891,209.563 191,210.5C 187.436,209.264 185.936,206.764 186.5,203C 186.106,199.832 187.106,197.332 189.5,195.5 Z"/></g>
<g><path style="opacity:0.803" fill="#000000" d="M 207.5,191.5 C 209.167,191.5 210.833,191.5 212.5,191.5C 212.443,195.133 213.443,195.3 215.5,192C 217.81,191.503 220.143,191.337 222.5,191.5C 222.466,195.309 220.466,197.143 216.5,197C 215.667,197.833 214.833,198.667 214,199.5C 213.501,204.489 213.334,209.489 213.5,214.5C 211.5,214.5 209.5,214.5 207.5,214.5C 207.5,206.833 207.5,199.167 207.5,191.5 Z"/></g>
</svg>
