<?xml version="1.0" encoding="UTF-8"?>
<svg version="1.1" xmlns="http://www.w3.org/2000/svg" width="128" height="128">
<path d="M0 0 C42.24 0 84.48 0 128 0 C128 42.24 128 84.48 128 128 C85.76 128 43.52 128 0 128 C0 85.76 0 43.52 0 0 Z " fill="#F9F9F9" transform="translate(0,0)"/>
<path d="M0 0 C0 4.04375096 -2.01820786 5.97830853 -4.4375 9 C-4.8927002 9.57886963 -5.34790039 10.15773926 -5.81689453 10.75415039 C-7.20265929 12.50982144 -8.59938073 14.25616592 -10 16 C-10.74121094 16.92683594 -11.48242188 17.85367187 -12.24609375 18.80859375 C-21.63596525 30.40379286 -31.38096715 41.69597439 -41.62890625 52.54101562 C-42.91149139 53.90581776 -44.17524467 55.28824897 -45.4375 56.671875 C-50.25053444 61.78572409 -54.38658839 64.58557989 -61 67 C-63.31 64.36 -65.62 61.72 -68 59 C-64.02992158 44.88416561 -45.17485861 33.09568599 -33.95556641 24.50976562 C-31.82357323 22.86379237 -29.71368204 21.19193624 -27.60546875 19.515625 C-18.70372162 12.46323455 -9.70776954 5.89957699 0 0 Z " fill="#4B4A3F" transform="translate(118,14)"/>
<path d="M0 0 C3.66710577 2.62634623 6.55695059 5.69126548 7.42578125 10.21875 C7.04758853 17.62611078 2.64754965 23.41863909 -2.5 28.4375 C-9.23743044 32.64839402 -16.28875881 32.64650746 -24 32 C-26.90599717 31.25076377 -29.27137521 30.28405873 -32 29 C-31.29875 28.505 -30.5975 28.01 -29.875 27.5 C-24.58072779 22.89628503 -21.2013826 17.51465637 -18 11.3125 C-14.04884693 3.81570695 -8.99374985 -1.3269467 0 0 Z " fill="#018CB7" transform="translate(46,76)"/>
</svg>
