<?xml version="1.0" encoding="UTF-8"?>
<svg version="1.1" xmlns="http://www.w3.org/2000/svg" width="202" height="202">
<path d="M0 0 C64.35 0 128.7 0 195 0 C195 64.35 195 128.7 195 195 C130.65 195 66.3 195 0 195 C0 130.65 0 66.3 0 0 Z " fill="#363435" transform="translate(4,3)"/>
<path d="M0 0 C0.55429688 0.42152344 1.10859375 0.84304687 1.6796875 1.27734375 C2.76636719 2.09912109 2.76636719 2.09912109 3.875 2.9375 C4.95394531 3.75541016 4.95394531 3.75541016 6.0546875 4.58984375 C10.15401153 7.56144209 14.08102575 7.57180327 19 7 C20.81101342 6.36521179 22.60319996 5.67469083 24.375 4.9375 C30.2974837 2.60315057 34.81755474 2.91413143 41 4 C41.93070312 4.13921875 42.86140625 4.2784375 43.8203125 4.421875 C59.24631799 6.91409873 59.24631799 6.91409873 62.2578125 10.49609375 C65.02568057 12.8853969 68.36698913 13.08095222 71.875 13.625 C72.62644287 13.74979736 73.37788574 13.87459473 74.15209961 14.00317383 C80.74642049 15.05577859 87.32945137 15.66357233 94 16 C93.36803534 20.11919132 92.02010292 23.45270165 90.1875 27.1875 C89.68605469 28.23292969 89.18460938 29.27835938 88.66796875 30.35546875 C86.89849938 33.16092722 85.93454135 33.71690556 83 35 C82.26919734 36.97746603 81.60578253 38.98072489 81 41 C79.5 43.375 79.5 43.375 78 45 C77.34 45 76.68 45 76 45 C76.33 42.69 76.66 40.38 77 38 C76.34 38 75.68 38 75 38 C74.34 39.32 73.68 40.64 73 42 C71.68 41.34 70.36 40.68 69 40 C69 39.34 69 38.68 69 38 C68.01 38.66 67.02 39.32 66 40 C64 39.625 64 39.625 62 39 C59.37886292 39 57.49064888 39.31292445 55 40 C54.505 38.02 54.505 38.02 54 36 C53.21625 36.66 52.4325 37.32 51.625 38 C49 40 49 40 47 40 C46.505 37.03 46.505 37.03 46 34 C43.64551835 36.55068845 43.01672076 37.71017358 42.8125 41.25 C42.874375 42.1575 42.93625 43.065 43 44 C46.01031744 44.93423645 46.86650268 45.04449911 50 44 C50 44.66 50 45.32 50 46 C51.65 46 53.3 46 55 46 C55.33 47.65 55.66 49.3 56 51 C56.598125 50.67 57.19625 50.34 57.8125 50 C60 49 60 49 63 49 C63.33 49.99 63.66 50.98 64 52 C64.99 51.34 65.98 50.68 67 50 C67.66 50.66 68.32 51.32 69 52 C70.32 51.01 71.64 50.02 73 49 C71.97189719 57.22482248 69.21027219 63.5873573 64 70 C63.34 70 62.68 70 62 70 C62 69.01 62 68.02 62 67 C59.525 67.495 59.525 67.495 57 68 C56.814375 67.05125 56.62875 66.1025 56.4375 65.125 C55.28125 61.71875 55.28125 61.71875 51.875 60.5625 C47.31599296 59.90070866 44.48137245 59.89802317 40 61 C34.43328102 66.12724117 33.74038732 72.84292262 33 80 C31.68 78.68 30.36 77.36 29 76 C25.61504892 81.44535609 25.32626495 86.67721029 25 93 C21 88.25 21 88.25 21 86 C20.34 86 19.68 86 19 86 C18.71125 86.928125 18.4225 87.85625 18.125 88.8125 C17 92 17 92 15 95 C14.5396236 98.19806665 14.5396236 98.19806665 14.375 101.6875 C14.30023438 102.86699219 14.22546875 104.04648438 14.1484375 105.26171875 C14.07496094 106.61716797 14.07496094 106.61716797 14 108 C12.68 107.01 11.36 106.02 10 105 C9.58427734 106.49853516 9.58427734 106.49853516 9.16015625 108.02734375 C8.79444451 109.33077791 8.42854962 110.63416069 8.0625 111.9375 C7.88009766 112.59685547 7.69769531 113.25621094 7.50976562 113.93554688 C6.11328125 118.88671875 6.11328125 118.88671875 5 120 C4.76924918 121.34747084 4.58846937 122.70377565 4.4375 124.0625 C4.293125 125.361875 4.14875 126.66125 4 128 C2 125 2 125 2 122 C1.34 122 0.68 122 0 122 C-0.0825 122.763125 -0.165 123.52625 -0.25 124.3125 C-1.28777865 129.4149117 -3.14287032 134.1455494 -5 139 C-5.66 139 -6.32 139 -7 139 C-8.6498007 135.70039859 -8.38258361 132.00872116 -8.5625 128.375 C-8.60568359 127.57320313 -8.64886719 126.77140625 -8.69335938 125.9453125 C-8.79951457 123.9637489 -8.90026855 121.98189729 -9 120 C-12.3 121.98 -15.6 123.96 -19 126 C-19 123.03 -19 120.06 -19 117 C-19.99 117.33 -20.98 117.66 -22 118 C-23.72795352 118.06802967 -25.45835365 118.08495645 -27.1875 118.0625 C-28.53908203 118.04896484 -28.53908203 118.04896484 -29.91796875 118.03515625 C-30.60503906 118.02355469 -31.29210938 118.01195312 -32 118 C-31.54636829 116.41531323 -31.08688548 114.83230076 -30.625 113.25 C-30.36976562 112.36828125 -30.11453125 111.4865625 -29.8515625 110.578125 C-29.0790066 108.23919428 -28.16374324 106.16557438 -27 104 C-27.53625 104.33 -28.0725 104.66 -28.625 105 C-31.5391061 106.22699204 -33.86867708 106.14233286 -37 106 C-37 102.21286807 -35.73107406 100.16645599 -34 96.8125 C-33.443125 95.72582031 -32.88625 94.63914062 -32.3125 93.51953125 C-31.6628125 92.27236328 -31.6628125 92.27236328 -31 91 C-32.65 91 -34.3 91 -36 91 C-34.7508258 87.54074837 -33.32472205 84.85306797 -31 82 C-31.99 81.505 -31.99 81.505 -33 81 C-32.125 76.25 -32.125 76.25 -31 74 C-32.051875 74.495 -33.10375 74.99 -34.1875 75.5 C-37.25452609 76.82779788 -39.62134936 77.30715006 -43 77 C-42.67 74.03 -42.34 71.06 -42 68 C-45.3 68 -48.6 68 -52 68 C-51.125 60.375 -51.125 60.375 -50 57 C-50.99 57.66 -51.98 58.32 -53 59 C-57.67938357 59.78619692 -62.14507006 59.90541747 -66.46484375 57.796875 C-71.65033567 54.08357518 -71.65033567 54.08357518 -72.7109375 50.796875 C-72.80632812 50.20390625 -72.90171875 49.6109375 -73 49 C-71.98292969 49.433125 -71.98292969 49.433125 -70.9453125 49.875 C-63.56625072 52.81844847 -56.74058722 54.58019574 -49 52 C-49.556875 51.98582031 -50.11375 51.97164062 -50.6875 51.95703125 C-56.64599071 51.58462558 -61.5686554 50.19395114 -66 46 C-66.71875 43.83203125 -66.71875 43.83203125 -67 42 C-66.17371094 42.32484375 -65.34742188 42.6496875 -64.49609375 42.984375 C-60.61154127 44.11284835 -57.06664214 44.29545857 -53.0625 44.25 C-52.04639648 44.26160156 -52.04639648 44.26160156 -51.00976562 44.2734375 C-46.28045018 44.25530014 -42.4419455 43.45941364 -38 42 C-38.71027344 41.81824219 -39.42054687 41.63648438 -40.15234375 41.44921875 C-41.53099609 41.07216797 -41.53099609 41.07216797 -42.9375 40.6875 C-43.85402344 40.44386719 -44.77054688 40.20023438 -45.71484375 39.94921875 C-46.46894531 39.63597656 -47.22304688 39.32273438 -48 39 C-48.33 38.01 -48.66 37.02 -49 36 C-42.4 34.68 -35.8 33.36 -29 32 C-31.413125 31.3503125 -31.413125 31.3503125 -33.875 30.6875 C-38.75 29.375 -38.75 29.375 -41 26 C-39.74703125 25.96261719 -38.4940625 25.92523438 -37.203125 25.88671875 C-35.55205379 25.82105115 -33.90101345 25.75460407 -32.25 25.6875 C-31.425 25.66494141 -30.6 25.64238281 -29.75 25.61914062 C-23.79314143 25.38451083 -23.79314143 25.38451083 -19 22 C-19.7425 21.731875 -20.485 21.46375 -21.25 21.1875 C-23.86636554 20.05770579 -25.80187111 18.79106798 -28 17 C-27.505 15.515 -27.505 15.515 -27 14 C-26.278125 14.515625 -25.55625 15.03125 -24.8125 15.5625 C-19.67112073 18.22655609 -13.51742652 16.6794457 -8 16 C-8.78632812 15.38253906 -9.57265625 14.76507813 -10.3828125 14.12890625 C-12.75997693 12.19524264 -14.46640074 10.64119873 -16 8 C-15.67 7.01 -15.34 6.02 -15 5 C-14.071875 5.66 -13.14375 6.32 -12.1875 7 C-7.3429789 9.83095472 -2.44477025 9.35445159 3 9 C2.505 8.2575 2.01 7.515 1.5 6.75 C0 4 0 4 0 0 Z " fill="#FBFBFB" transform="translate(93,36)"/>
<path d="M0 0 C0.33 0 0.66 0 1 0 C1 2.31 1 4.62 1 7 C2.175625 6.01 2.175625 6.01 3.375 5 C6 3 6 3 8 3 C8.33 3.99 8.66 4.98 9 6 C9.598125 5.835 10.19625 5.67 10.8125 5.5 C13.40740545 4.90687875 15.42846716 4.83925639 18 5.5625 C20.19116616 6.22052993 20.19116616 6.22052993 23 5 C24.125 6.6875 24.125 6.6875 25 9 C24.125 11.75 24.125 11.75 23 14 C23.99 14.66 24.98 15.32 26 16 C25.67 16.99 25.34 17.98 25 19 C24.01 19.33 23.02 19.66 22 20 C21.34 19.34 20.68 18.68 20 18 C19.01 18.66 18.02 19.32 17 20 C17 18.68 17 17.36 17 16 C14.69 16.66 12.38 17.32 10 18 C9.67 16.68 9.34 15.36 9 14 C7.35 13.67 5.7 13.34 4 13 C4 12.34 4 11.68 4 11 C3.01 11.66 2.02 12.32 1 13 C-2.51724138 12.48275862 -2.51724138 12.48275862 -4 11 C-4.44466886 7.08691406 -4.29611081 5.43939024 -2.0625 2.125 C-1.0415625 1.073125 -1.0415625 1.073125 0 0 Z " fill="#3F3D3E" transform="translate(139,69)"/>
<path d="M0 0 C1.125 1.6875 1.125 1.6875 2 4 C1.125 6.75 1.125 6.75 0 9 C0.99 9.66 1.98 10.32 3 11 C2.67 11.99 2.34 12.98 2 14 C1.01 14.33 0.02 14.66 -1 15 C-1.66 14.34 -2.32 13.68 -3 13 C-3.99 13.66 -4.98 14.32 -6 15 C-6 13.68 -6 12.36 -6 11 C-8.31 11.66 -10.62 12.32 -13 13 C-13.33 11.35 -13.66 9.7 -14 8 C-12.02 8.66 -10.04 9.32 -8 10 C-8.04125 8.88625 -8.0825 7.7725 -8.125 6.625 C-8 3 -8 3 -6 1 C-3.90200436 0.34437636 -2.19959601 0 0 0 Z " fill="#3C3A3B" transform="translate(162,74)"/>
<path d="M0 0 C0.96486328 0.433125 0.96486328 0.433125 1.94921875 0.875 C8.60749133 3.61049573 14.06656665 4.36242432 21.25 4.04296875 C24 4 24 4 27 5 C26.67 6.32 26.34 7.64 26 9 C25.01 8.67 24.02 8.34 23 8 C22.01 8.66 21.02 9.32 20 10 C15.32061643 10.78619692 10.85492994 10.90541747 6.53515625 8.796875 C1.34966433 5.08357518 1.34966433 5.08357518 0.2890625 1.796875 C0.19367187 1.20390625 0.09828125 0.6109375 0 0 Z " fill="#F4F2F3" transform="translate(20,85)"/>
<path d="M0 0 C0.721875 0.763125 1.44375 1.52625 2.1875 2.3125 C7.8870999 7.75878435 12.32080246 8.56757917 20 9 C19.67 9.66 19.34 10.32 19 11 C11.76643154 13.41118949 3.79180406 12.37269541 -3 9 C-3.33 8.34 -3.66 7.68 -4 7 C-3.34 6.67 -2.68 6.34 -2 6 C-1.27306096 4.02111039 -0.60183749 2.02045442 0 0 Z " fill="#413F40" transform="translate(25,78)"/>
<path d="M0 0 C0.99 0.33 1.98 0.66 3 1 C3 1.66 3 2.32 3 3 C8.94 4.485 8.94 4.485 15 6 C11.63641561 9.36358439 7.69839798 9.92695062 3.09375 10.125 C0.39286838 10.125 -2.30064828 10.08786317 -5 10 C-4.67 8.68 -4.34 7.36 -4 6 C-3.34 6 -2.68 6 -2 6 C-1.34 4.02 -0.68 2.04 0 0 Z " fill="#3B3B3B" transform="translate(42,71)"/>
<path d="M0 0 C0.66 0.33 1.32 0.66 2 1 C2.36871088 2.65919896 2.69595322 4.32774271 3 6 C3.64635547 7.67464827 4.31038412 9.34269732 5 11 C3.04196493 11.05389087 1.08351091 11.09274217 -0.875 11.125 C-1.96554688 11.14820313 -3.05609375 11.17140625 -4.1796875 11.1953125 C-7 11 -7 11 -9 9 C-8.195625 8.566875 -7.39125 8.13375 -6.5625 7.6875 C-3.72153646 6.19525998 -3.72153646 6.19525998 -3 3 C-2.34 3 -1.68 3 -1 3 C-0.67 2.01 -0.34 1.02 0 0 Z " fill="#424242" transform="translate(92,35)"/>
<path d="M0 0 C0.33 0 0.66 0 1 0 C1 2.31 1 4.62 1 7 C1.66 7.33 2.32 7.66 3 8 C3.33 8.99 3.66 9.98 4 11 C1 13 1 13 -1.125 12.6875 C-3 12 -3 12 -4 11 C-4.44466886 7.08691406 -4.29611081 5.43939024 -2.0625 2.125 C-1.0415625 1.073125 -1.0415625 1.073125 0 0 Z " fill="#424041" transform="translate(139,69)"/>
<path d="M0 0 C1.49303645 2.36807614 2.0497206 3.58112096 1.71484375 6.40234375 C0.02416287 11.91617236 -1.48889855 15.34235017 -6 19 C-6 18.01 -6 17.02 -6 16 C-6.66 15.67 -7.32 15.34 -8 15 C-7.608125 14.38125 -7.21625 13.7625 -6.8125 13.125 C-4.33405027 8.85181081 -2.17746255 4.43238425 0 0 Z " fill="#424041" transform="translate(186,55)"/>
<path d="M0 0 C0.56203125 0.30679688 1.1240625 0.61359375 1.703125 0.9296875 C4.06346934 2.02957585 6.20465562 2.60095851 8.75 3.125 C9.54921875 3.29257813 10.3484375 3.46015625 11.171875 3.6328125 C11.77515625 3.75398438 12.3784375 3.87515625 13 4 C12.67 4.66 12.34 5.32 12 6 C9.49609375 6.6328125 9.49609375 6.6328125 6.4375 7.125 C4.91962891 7.37636719 4.91962891 7.37636719 3.37109375 7.6328125 C2.19740234 7.81457031 2.19740234 7.81457031 1 8 C0.67 5.36 0.34 2.72 0 0 Z " fill="#434142" transform="translate(52,63)"/>
<path d="M0 0 C0.66 0.33 1.32 0.66 2 1 C2.1875 4.375 2.1875 4.375 2 8 C1.01 8.66 0.02 9.32 -1 10 C-1 8.68 -1 7.36 -1 6 C-3.31 6.66 -5.62 7.32 -8 8 C-8.33 6.35 -8.66 4.7 -9 3 C-7.02 3.66 -5.04 4.32 -3 5 C-2.814375 4.0409375 -2.814375 4.0409375 -2.625 3.0625 C-2.41875 2.381875 -2.2125 1.70125 -2 1 C-1.34 0.67 -0.68 0.34 0 0 Z " fill="#403E3F" transform="translate(157,79)"/>
<path d="M0 0 C0.33 1.98 0.66 3.96 1 6 C-0.6266848 5.71788123 -2.25132896 5.42397625 -3.875 5.125 C-4.77992188 4.96257813 -5.68484375 4.80015625 -6.6171875 4.6328125 C-9 4 -9 4 -11 2 C-7.17010894 0.19769832 -4.21878192 -0.19622241 0 0 Z " fill="#505050" transform="translate(150,51)"/>
<path d="M0 0 C0.99 1.32 1.98 2.64 3 4 C3.66 3.67 4.32 3.34 5 3 C5 4.32 5 5.64 5 7 C4.01 7 3.02 7 2 7 C2 7.66 2 8.32 2 9 C1.01 9.33 0.02 9.66 -1 10 C-1 9.34 -1 8.68 -1 8 C-1.99 8.33 -2.98 8.66 -4 9 C-2.25 2.25 -2.25 2.25 0 0 Z " fill="#504E4F" transform="translate(122,111)"/>
<path d="M0 0 C3.68754757 0.49831724 5.60490662 1.10067643 8 4 C6.12175109 5.87824891 2.96064724 5.39102397 0.4375 5.5625 C-0.76003906 5.64628906 -1.95757812 5.73007812 -3.19140625 5.81640625 C-4.11824219 5.87699219 -5.04507813 5.93757813 -6 6 C-5.195625 5.38125 -4.39125 4.7625 -3.5625 4.125 C-0.96125481 2.25835959 -0.96125481 2.25835959 0 0 Z " fill="#464445" transform="translate(78,48)"/>
<path d="M0 0 C0.66 0 1.32 0 2 0 C2.125 6.75 2.125 6.75 1 9 C-0.875 8.8125 -0.875 8.8125 -3 8 C-4.25 5.4375 -4.25 5.4375 -5 3 C-4.360625 2.690625 -3.72125 2.38125 -3.0625 2.0625 C-1.06389179 1.1654837 -1.06389179 1.1654837 0 0 Z " fill="#343233" transform="translate(153,75)"/>
<path d="M0 0 C1.35158203 0.15275391 1.35158203 0.15275391 2.73046875 0.30859375 C3.41753906 0.39238281 4.10460938 0.47617188 4.8125 0.5625 C1.5479972 3.8270028 -2.59797299 4.49486055 -7.125 4.6875 C-7.805625 4.64625 -8.48625 4.605 -9.1875 4.5625 C-8.5275 3.9025 -7.8675 3.2425 -7.1875 2.5625 C-7.5175 1.9025 -7.8475 1.2425 -8.1875 0.5625 C-4.98734144 -0.50421952 -3.30205706 -0.38595472 0 0 Z " fill="#484848" transform="translate(52.1875,76.4375)"/>
<path d="M0 0 C1.27230469 0.47566406 1.27230469 0.47566406 2.5703125 0.9609375 C6.09477225 2.02871232 9.20670957 2.40041079 12.875 2.625 C14.60363281 2.73714844 14.60363281 2.73714844 16.3671875 2.8515625 C17.67042969 2.92503906 17.67042969 2.92503906 19 3 C19 3.33 19 3.66 19 4 C14.71 4 10.42 4 6 4 C6 4.66 6 5.32 6 6 C3.5625 5.25 3.5625 5.25 1 4 C0.1875 1.875 0.1875 1.875 0 0 Z " fill="#CAC9CA" transform="translate(26,78)"/>
<path d="M0 0 C0.66 0 1.32 0 2 0 C2.33 0.99 2.66 1.98 3 3 C3.598125 2.835 4.19625 2.67 4.8125 2.5 C7 2 7 2 10 2 C8.35 3.65 6.7 5.3 5 7 C5 6.34 5 5.68 5 5 C4.01 5.33 3.02 5.66 2 6 C-0.6875 5.0625 -0.6875 5.0625 -3 4 C-1.625 2 -1.625 2 0 0 Z " fill="#4A4849" transform="translate(145,72)"/>
<path d="M0 0 C0.66 1.32 1.32 2.64 2 4 C2.99 4 3.98 4 5 4 C5.33 4.66 5.66 5.32 6 6 C3.29120665 7.35439668 0.99066732 7.06501451 -2 7 C-2 3.89448334 -1.4606285 2.64738916 0 0 Z " fill="#E8E7E7" transform="translate(58,135)"/>
<path d="M0 0 C0.66 0 1.32 0 2 0 C1.67 2.31 1.34 4.62 1 7 C2.65 5.68 4.3 4.36 6 3 C6 4.32 6 5.64 6 7 C5.34 7 4.68 7 4 7 C4 7.66 4 8.32 4 9 C2.125 8.8125 2.125 8.8125 0 8 C-1.375 5.625 -1.375 5.625 -2 3 C-1.34 2.01 -0.68 1.02 0 0 Z " fill="#4C494A" transform="translate(168,74)"/>
<path d="M0 0 C0.66 0 1.32 0 2 0 C2.84454356 3.37817425 3.10844919 5.67465243 2 9 C1.34 9 0.68 9 0 9 C-1.36623674 6.26752652 -1.128426 4.01801098 -1 1 C-0.67 0.67 -0.34 0.34 0 0 Z " fill="#EDEBEC" transform="translate(86,166)"/>
<path d="M0 0 C0.66 0 1.32 0 2 0 C1.67 2.31 1.34 4.62 1 7 C3.97 7 6.94 7 10 7 C10 7.33 10 7.66 10 8 C6.7 8 3.4 8 0 8 C-0.33 7.01 -0.66 6.02 -1 5 C-1.66 4.67 -2.32 4.34 -3 4 C-2.34 4 -1.68 4 -1 4 C-0.67 2.68 -0.34 1.36 0 0 Z " fill="#5C5A5B" transform="translate(40,97)"/>
<path d="M0 0 C0.66 0 1.32 0 2 0 C2.66 1.65 3.32 3.3 4 5 C0.535 6.485 0.535 6.485 -3 8 C-1.125 2.25 -1.125 2.25 0 0 Z " fill="#464445" transform="translate(112,122)"/>
<path d="M0 0 C3.3 0 6.6 0 10 0 C9.25 4.75 9.25 4.75 7 7 C7 6.34 7 5.68 7 5 C6.34 5 5.68 5 5 5 C5 4.34 5 3.68 5 3 C5.66 3 6.32 3 7 3 C7 2.34 7 1.68 7 1 C4.69 1 2.38 1 0 1 C0 0.67 0 0.34 0 0 Z " fill="#D0CFD0" transform="translate(177,52)"/>
<path d="M0 0 C-0.99 0.33 -1.98 0.66 -3 1 C-3.33 1.99 -3.66 2.98 -4 4 C-5.65 3.67 -7.3 3.34 -9 3 C-9.33 2.01 -9.66 1.02 -10 0 C-6.33694766 -0.74926071 -3.57644848 -1.2380014 0 0 Z " fill="#DEDDDD" transform="translate(54,72)"/>
<path d="M0 0 C4.95 0 9.9 0 15 0 C15 0.33 15 0.66 15 1 C11.7 1 8.4 1 5 1 C5 1.66 5 2.32 5 3 C5.66 3.33 6.32 3.66 7 4 C4.625 3.6875 4.625 3.6875 2 3 C1.34 2.01 0.68 1.02 0 0 Z " fill="#C1BFC0" transform="translate(52,62)"/>
<path d="M0 0 C3.96 1.98 3.96 1.98 8 4 C6.68 5.32 5.36 6.64 4 8 C0 3.375 0 3.375 0 0 Z " fill="#D6D4D5" transform="translate(77,41)"/>
<path d="M0 0 C0.99 1.32 1.98 2.64 3 4 C2.01 4.495 2.01 4.495 1 5 C-0.13350534 7.01669827 -0.13350534 7.01669827 -1 9 C-1.99 8.67 -2.98 8.34 -4 8 C-3.34 7.34 -2.68 6.68 -2 6 C-1.28591666 4.01643517 -0.61382258 2.01684563 0 0 Z " fill="#444243" transform="translate(25,78)"/>
<path d="M0 0 C0.66 1.32 1.32 2.64 2 4 C0.72125 3.95875 -0.5575 3.9175 -1.875 3.875 C-4.01871492 3.75787127 -4.01871492 3.75787127 -6 4 C-6.66 4.66 -7.32 5.32 -8 6 C-7.67 4.35 -7.34 2.7 -7 1 C-2.25 0 -2.25 0 0 0 Z " fill="#514F50" transform="translate(162,74)"/>
<path d="M0 0 C3.465 1.485 3.465 1.485 7 3 C7 4.32 7 5.64 7 7 C4.50638429 5.79618552 2.31856917 4.54571278 0 3 C0 2.01 0 1.02 0 0 Z " fill="#E1DFE0" transform="translate(65,50)"/>
<path d="M0 0 C0.33 0 0.66 0 1 0 C1.33 1.65 1.66 3.3 2 5 C4.97 5.495 4.97 5.495 8 6 C8 6.33 8 6.66 8 7 C4.7 7 1.4 7 -2 7 C-1.34 4.69 -0.68 2.38 0 0 Z " fill="#DAD8D9" transform="translate(63,147)"/>
<path d="M0 0 C1.98 0 3.96 0 6 0 C5.67 0.66 5.34 1.32 5 2 C1.98509443 3.00496852 -0.04181692 3.10335303 -3.1875 3.0625 C-4.53908203 3.04896484 -4.53908203 3.04896484 -5.91796875 3.03515625 C-6.60503906 3.02355469 -7.29210937 3.01195313 -8 3 C-8 2.67 -8 2.34 -8 2 C-5.36 2 -2.72 2 0 2 C0 1.34 0 0.68 0 0 Z " fill="#6E6D6D" transform="translate(39,87)"/>
<path d="M0 0 C2.97 0.33 5.94 0.66 9 1 C9 1.66 9 2.32 9 3 C6.36 3 3.72 3 1 3 C0.67 2.01 0.34 1.02 0 0 Z " fill="#353334" transform="translate(30,86)"/>
<path d="M0 0 C1.42944945 2.35438733 2.08661261 3.48032433 1.625 6.25 C1.41875 6.8275 1.2125 7.405 1 8 C-0.32 7.34 -1.64 6.68 -3 6 C-2 4 -1 2 0 0 Z " fill="#545253" transform="translate(19,81)"/>
<path d="M0 0 C1.32 0 2.64 0 4 0 C4.33 0.99 4.66 1.98 5 3 C2.525 4.485 2.525 4.485 0 6 C0 4.02 0 2.04 0 0 Z " fill="#E9E7E8" transform="translate(74,156)"/>
<path d="M0 0 C0.99 0 1.98 0 3 0 C3.33 0.99 3.66 1.98 4 3 C2 5 2 5 -1 6 C-0.67 4.02 -0.34 2.04 0 0 Z " fill="#3E3E3E" transform="translate(128,102)"/>
<path d="M0 0 C2.97 0.99 5.94 1.98 9 3 C5 5 5 5 2 5 C1.34 3.35 0.68 1.7 0 0 Z " fill="#E3E1E2" transform="translate(20,85)"/>
<path d="M0 0 C4.95 0.99 4.95 0.99 10 2 C10 2.33 10 2.66 10 3 C5.545 3.495 5.545 3.495 1 4 C0.67 2.68 0.34 1.36 0 0 Z " fill="#3F3D3E" transform="translate(49,59)"/>
<path d="M0 0 C2.97 0.495 2.97 0.495 6 1 C5.34 2.32 4.68 3.64 4 5 C3.34 5 2.68 5 2 5 C2 4.01 2 3.02 2 2 C1.01 2.495 1.01 2.495 0 3 C0 2.01 0 1.02 0 0 Z " fill="#CAC8C9" transform="translate(153,101)"/>
<path d="M0 0 C2.64 0.66 5.28 1.32 8 2 C5.38058783 3.74627478 3.96175123 4.38722388 1 5 C0.67 3.35 0.34 1.7 0 0 Z " fill="#5E5C5D" transform="translate(148,82)"/>
<path d="M0 0 C1.32 0.99 2.64 1.98 4 3 C2.625 5 2.625 5 1 7 C0.34 7 -0.32 7 -1 7 C-0.67 4.69 -0.34 2.38 0 0 Z " fill="#DCDADB" transform="translate(170,74)"/>
<path d="M0 0 C0 1.65 0 3.3 0 5 C-0.99 5 -1.98 5 -3 5 C-4.6875 3 -4.6875 3 -6 1 C-4 0 -4 0 0 0 Z " fill="#323031" transform="translate(146,76)"/>
</svg>
